<svg width="131" height="37" viewBox="0 0 131 37" fill="none" xmlns="http://www.w3.org/2000/svg">
<g clip-path="url(#clip0_239_878)">
<path d="M8.37143 24.6602C7.32665 25.6034 5.97202 26.13 4.56479 26.1398C3.97238 26.1819 3.37769 26.0998 2.81886 25.8986C2.26003 25.6974 1.74938 25.3816 1.31966 24.9714C0.889931 24.5612 0.550605 24.0657 0.323434 23.5167C0.0962634 22.9677 -0.0137409 22.3772 0.000473483 21.7831C-0.0433312 21.0045 0.159961 20.2319 0.581304 19.5758C1.00265 18.9197 1.62048 18.4135 2.34653 18.1298C3.46283 17.655 4.65083 17.371 5.86106 17.2895L8.21625 17.0977V16.5954C8.21625 15.0884 7.2121 14.4125 5.53243 14.4125C4.29823 14.4661 3.09409 14.8103 2.0179 15.4172L0.840308 13.2434C2.43794 12.3794 4.21876 11.9097 6.0345 11.8734C9.68596 11.8734 11.393 13.5448 11.393 16.7324V22.2855C11.3039 23.4683 11.4181 24.6577 11.7308 25.8018H8.87351L8.37143 24.6602ZM6.18969 19.6368C5.48536 19.6021 4.78653 19.7769 4.18139 20.1391C3.92405 20.2973 3.71165 20.5189 3.56458 20.7828C3.41751 21.0467 3.34071 21.344 3.34155 21.6461C3.34027 21.9022 3.39281 22.1557 3.49576 22.3901C3.59871 22.6245 3.74977 22.8347 3.93914 23.0069C4.12851 23.1792 4.35196 23.3097 4.595 23.3899C4.83803 23.4702 5.09521 23.4984 5.34985 23.4728C6.33037 23.4415 7.27339 23.0884 8.03367 22.4681V19.6094L6.18969 19.6368Z" fill="#00364D"/>
<path d="M13.4014 19.2715C13.4014 14.9148 16.5873 12.0652 20.7682 12.0652C21.3814 12.0382 21.9954 12.0935 22.5939 12.2296V5.69923H25.9441V25.3086C24.36 25.9939 22.649 26.3363 20.9234 26.3133C16.7516 26.1398 13.4014 23.8016 13.4014 19.2715ZM22.6122 23.1257V15.0792C22.068 14.9337 21.5037 14.8782 20.9416 14.9148C20.3732 14.8996 19.8078 15.0033 19.2816 15.219C18.7554 15.4348 18.28 15.758 17.8857 16.168C17.4914 16.578 17.1868 17.0657 16.9916 17.6001C16.7963 18.1345 16.7146 18.7037 16.7516 19.2715C16.7029 19.8343 16.7778 20.4009 16.9712 20.9317C17.1645 21.4624 17.4716 21.9444 17.8708 22.3439C18.27 22.7433 18.7518 23.0505 19.2823 23.244C19.8128 23.4374 20.3791 23.5124 20.9416 23.4637C21.4437 23.2901 22.1101 23.2901 22.6122 23.1257Z" fill="#00364D"/>
<path d="M27.1309 12.4031H30.6454L33.9956 21.6187L37.3458 12.4031H40.696L35.1732 25.9753H32.6628L27.1309 12.4031Z" fill="#00364D"/>
<path d="M41.2069 19.2715C41.1858 18.3217 41.3568 17.3775 41.7096 16.4954C42.0624 15.6134 42.5897 14.8118 43.2598 14.1388C43.9299 13.4657 44.7291 12.9351 45.6093 12.5788C46.4895 12.2225 47.4326 12.0478 48.382 12.0653C49.6439 12.0916 50.8869 12.3776 52.0335 12.9055V15.7552C51.0507 15.0748 49.878 14.7231 48.6833 14.7505C46.1729 14.7505 44.6667 16.5772 44.6667 19.1071C44.6667 21.9567 46.1729 23.4637 48.5189 23.4637C49.6361 23.4671 50.7345 23.1774 51.7048 22.6235L52.709 24.9707C51.2957 25.836 49.6737 26.3002 48.0169 26.3134C47.0997 26.3255 46.1898 26.15 45.343 25.7974C44.4961 25.4449 43.7303 24.9228 43.0925 24.2633C42.4547 23.6038 41.9584 22.8208 41.6342 21.9623C41.3099 21.1039 41.1645 20.1882 41.2069 19.2715Z" fill="#009A61"/>
<path d="M61.6368 24.6602C60.5844 25.6239 59.2111 26.1611 57.7845 26.1672C57.1921 26.2093 56.5974 26.1272 56.0386 25.926C55.4798 25.7248 54.9691 25.409 54.5394 24.9988C54.1097 24.5886 53.7703 24.0931 53.5432 23.5441C53.316 22.9951 53.206 22.4046 53.2202 21.8105C53.1764 21.0319 53.3797 20.2593 53.801 19.6032C54.2224 18.9471 54.8402 18.4409 55.5663 18.1572C56.6826 17.6824 57.8706 17.3984 59.0808 17.3169L61.4268 17.1525V16.6502C61.4268 15.1432 60.4227 14.4673 58.743 14.4673C57.5088 14.5209 56.3047 14.8651 55.2285 15.472L54.1057 13.2434C55.7142 12.3737 57.5082 11.9039 59.3364 11.8734C62.9878 11.8734 64.6949 13.5448 64.6949 16.7324V22.2855C64.6058 23.4683 64.72 24.6577 65.0327 25.8018H62.1389L61.6368 24.6602ZM59.4551 19.6368C58.7507 19.6021 58.0519 19.7769 57.4468 20.1391C57.1916 20.2937 56.9799 20.5105 56.8314 20.7693C56.683 21.0281 56.6026 21.3204 56.5978 21.6187C56.5965 21.8748 56.649 22.1283 56.752 22.3627C56.8549 22.5971 57.006 22.8073 57.1954 22.9795C57.3848 23.1518 57.6082 23.2823 57.8512 23.3625C58.0943 23.4428 58.3514 23.471 58.6061 23.4454C59.5866 23.414 60.5296 23.061 61.2899 22.4407V19.6094L59.4551 19.6368Z" fill="#009A61"/>
<path d="M67.333 22.2855C68.4147 23.0137 69.6811 23.4192 70.9844 23.4545C72.3263 23.4545 73.3305 23.1166 73.3305 21.9475C73.3305 19.6002 66.9404 20.4405 66.9404 16.0839C66.9404 13.7366 68.9487 12.0652 72.1346 12.0652C73.4983 12.0959 74.8507 12.3204 76.1512 12.7319V15.5815C74.9362 15.0467 73.6262 14.761 72.2989 14.7413C71.1305 14.7413 70.4732 15.0792 70.4732 15.9103C70.4732 18.0932 76.8633 17.253 76.8633 21.9475C76.8633 24.9615 74.3529 26.1397 71.3313 26.1397C69.5686 26.1434 67.8364 25.6801 66.3105 24.7971L67.333 22.2855Z" fill="#009A61"/>
<path d="M78.7256 5.69923H82.0758V13.9193C83.3405 12.801 84.9534 12.1555 86.6401 12.0926C88.8219 12.0926 90.9945 13.0973 90.9945 16.9516V25.8292H87.6351V17.9288C87.6351 16.2574 87.2974 14.9148 85.6268 14.9148C84.3564 15.019 83.1605 15.5576 82.2401 16.4401V25.811H78.8899V5.7175L78.7256 5.69923Z" fill="#009A61"/>
<path d="M112.73 36.5336C122.813 36.5336 130.987 28.3552 130.987 18.2668C130.987 8.17832 122.813 0 112.73 0C102.647 0 94.4727 8.17832 94.4727 18.2668C94.4727 28.3552 102.647 36.5336 112.73 36.5336Z" fill="#009A61"/>
<path d="M103.007 27.9847L112.392 7.37059L113.058 14.5768L106.86 27.8203L103.007 27.9847Z" fill="white"/>
<path d="M103.683 19.2714H121.438L119.43 21.7831H105.354L103.683 19.2714Z" fill="#00364D"/>
<path d="M100.67 14.7505H124.113L122.104 17.2621H102.341L100.67 14.7505Z" fill="#00364D"/>
<path d="M121.767 27.9847L112.392 7.37059L111.726 14.5768L117.915 27.8203L121.767 27.9847Z" fill="white"/>
</g>
<defs>
<clipPath id="clip0_239_878">
<rect width="130.987" height="36.5336" fill="white"/>
</clipPath>
</defs>
</svg>
