<svg width="119" height="33" viewBox="0 0 119 33" fill="none" xmlns="http://www.w3.org/2000/svg">
<g opacity="0.5" clip-path="url(#clip0_115_950)">
<path d="M7.5654 22.275C6.62118 23.127 5.39694 23.6026 4.12515 23.6115C3.58976 23.6496 3.05231 23.5754 2.54727 23.3936C2.04223 23.2119 1.58073 22.9266 1.19237 22.5561C0.804001 22.1856 0.497337 21.738 0.292031 21.2421C0.0867251 20.7462 -0.0126911 20.2128 0.000155079 19.6762C-0.0394334 18.9729 0.144292 18.275 0.525081 17.6824C0.905869 17.0897 1.46424 16.6325 2.1204 16.3762C3.12926 15.9474 4.20291 15.6908 5.29666 15.6172L7.42515 15.444V14.9902C7.42515 13.629 6.51765 13.0185 4.99965 13.0185C3.88425 13.0669 2.79601 13.3778 1.82341 13.926L0.759155 11.9625C2.20302 11.182 3.81243 10.7577 5.4534 10.725C8.7534 10.725 10.2962 12.2347 10.2962 15.114V20.13C10.2156 21.1984 10.3188 22.2727 10.6014 23.3062H8.01915L7.5654 22.275ZM5.59366 17.7375C4.95712 17.7061 4.32555 17.864 3.77866 18.1912C3.54608 18.3341 3.35413 18.5343 3.22122 18.7726C3.0883 19.011 3.0189 19.2796 3.01966 19.5525C3.0185 19.7838 3.06598 20.0127 3.15902 20.2245C3.25206 20.4362 3.38858 20.6261 3.55972 20.7816C3.73087 20.9372 3.93281 21.0551 4.15245 21.1276C4.37209 21.2001 4.60452 21.2256 4.83466 21.2025C5.7208 21.1741 6.57305 20.8553 7.26015 20.295V17.7127L5.59366 17.7375Z" fill="white"/>
<path d="M12.1113 17.4074C12.1113 13.4722 14.9906 10.8982 18.7691 10.8982C19.3232 10.8738 19.8782 10.9238 20.4191 11.0467V5.14795H23.4468V22.8607C22.0152 23.4797 20.4689 23.7889 18.9093 23.7682C15.1391 23.6114 12.1113 21.4994 12.1113 17.4074ZM20.4356 20.8889V13.6207C19.9438 13.4892 19.4338 13.4391 18.9258 13.4722C18.4121 13.4585 17.9011 13.5521 17.4256 13.747C16.95 13.9419 16.5204 14.2338 16.164 14.6042C15.8077 14.9745 15.5325 15.4151 15.356 15.8977C15.1795 16.3804 15.1056 16.8946 15.1391 17.4074C15.0951 17.9158 15.1628 18.4277 15.3375 18.9071C15.5123 19.3865 15.7898 19.8219 16.1506 20.1827C16.5114 20.5435 16.9468 20.821 17.4262 20.9958C17.9056 21.1705 18.4175 21.2382 18.9258 21.1942C19.3796 21.0374 19.9818 21.0374 20.4356 20.8889Z" fill="white"/>
<path d="M24.5193 11.2035H27.6955L30.7233 19.5277L33.751 11.2035H36.7788L31.7875 23.463H29.5188L24.5193 11.2035Z" fill="white"/>
<path d="M37.2409 17.4075C37.2218 16.5496 37.3764 15.6967 37.6952 14.9C38.014 14.1033 38.4905 13.3792 39.0962 12.7712C39.7018 12.1633 40.4241 11.684 41.2196 11.3621C42.015 11.0403 42.8674 10.8825 43.7254 10.8983C44.8658 10.9221 45.9891 11.1804 47.0254 11.6573V14.2313C46.1372 13.6167 45.0774 13.2991 43.9976 13.3238C41.7289 13.3238 40.3676 14.9738 40.3676 17.259C40.3676 19.833 41.7289 21.1943 43.8491 21.1943C44.8587 21.1973 45.8515 20.9356 46.7284 20.4353L47.6359 22.5555C46.3586 23.3371 44.8927 23.7564 43.3954 23.7683C42.5665 23.7793 41.7442 23.6207 40.9788 23.3023C40.2135 22.9838 39.5214 22.5123 38.945 21.9165C38.3686 21.3208 37.9201 20.6135 37.627 19.8381C37.334 19.0627 37.2026 18.2356 37.2409 17.4075Z" fill="white"/>
<path d="M55.7041 22.275C54.753 23.1455 53.5119 23.6307 52.2226 23.6362C51.6872 23.6743 51.1497 23.6001 50.6447 23.4184C50.1396 23.2366 49.6781 22.9514 49.2898 22.5809C48.9014 22.2104 48.5947 21.7628 48.3894 21.2669C48.1841 20.7709 48.0847 20.2376 48.0976 19.701C48.058 18.9976 48.2417 18.2998 48.6225 17.7071C49.0033 17.1144 49.5616 16.6573 50.2178 16.401C51.2267 15.9721 52.3003 15.7156 53.3941 15.642L55.5143 15.4935V15.0397C55.5143 13.6785 54.6068 13.068 53.0888 13.068C51.9734 13.1164 50.8852 13.4273 49.9126 13.9755L48.8978 11.9625C50.3516 11.1769 51.9729 10.7525 53.6251 10.725C56.9251 10.725 58.4678 12.2347 58.4678 15.114V20.13C58.3873 21.1984 58.4905 22.2727 58.7731 23.3062H56.1578L55.7041 22.275ZM53.7323 17.7375C53.0958 17.7061 52.4642 17.864 51.9173 18.1912C51.6868 18.3308 51.4954 18.5267 51.3612 18.7605C51.227 18.9942 51.1544 19.2582 51.1501 19.5277C51.1489 19.759 51.1964 19.988 51.2894 20.1997C51.3825 20.4115 51.519 20.6013 51.6901 20.7569C51.8613 20.9125 52.0632 21.0304 52.2829 21.1028C52.5025 21.1753 52.7349 21.2009 52.9651 21.1777C53.8512 21.1494 54.7035 20.8305 55.3906 20.2702V17.7127L53.7323 17.7375Z" fill="white"/>
<path d="M60.8522 20.1299C61.8298 20.7878 62.9743 21.154 64.1522 21.1859C65.365 21.1859 66.2725 20.8807 66.2725 19.8247C66.2725 17.7044 60.4975 18.4634 60.4975 14.5282C60.4975 12.4079 62.3125 10.8982 65.1917 10.8982C66.4241 10.926 67.6464 11.1287 68.8217 11.5004V14.0744C67.7236 13.5913 66.5398 13.3332 65.3402 13.3154C64.2842 13.3154 63.6902 13.6207 63.6902 14.3714C63.6902 16.3432 69.4652 15.5842 69.4652 19.8247C69.4652 22.5472 67.1965 23.6114 64.4657 23.6114C62.8727 23.6147 61.3072 23.1963 59.9282 22.3987L60.8522 20.1299Z" fill="white"/>
<path d="M71.1484 5.14795H74.1762V12.5729C75.3192 11.5628 76.7768 10.9797 78.3012 10.9229C80.2729 10.9229 82.2364 11.8304 82.2364 15.3119V23.3309H79.2004V16.1947C79.2004 14.6849 78.8952 13.4722 77.3854 13.4722C76.2372 13.5663 75.1564 14.0528 74.3247 14.8499V23.3144H71.2969V5.16445L71.1484 5.14795Z" fill="white"/>
<path d="M101.88 33C110.992 33 118.38 25.6127 118.38 16.5C118.38 7.3873 110.992 0 101.88 0C92.7669 0 85.3796 7.3873 85.3796 16.5C85.3796 25.6127 92.7669 33 101.88 33Z" fill="white"/>
<path d="M93.093 25.278L101.574 6.65771L102.176 13.167L96.5745 25.1295L93.093 25.278Z" fill="#0F1019"/>
<path d="M93.7039 17.4075H109.75L107.935 19.6762H95.2136L93.7039 17.4075Z" fill="#0F1019"/>
<path d="M90.981 13.3237H112.167L110.352 15.5925H92.4907L90.981 13.3237Z" fill="#0F1019"/>
<path d="M110.047 25.278L101.574 6.65771L100.972 13.167L106.566 25.1295L110.047 25.278Z" fill="#0F1019"/>
</g>
<defs>
<clipPath id="clip0_115_950">
<rect width="118.379" height="33" fill="white"/>
</clipPath>
</defs>
</svg>
