<svg width="78" height="33" viewBox="0 0 78 33" fill="none" xmlns="http://www.w3.org/2000/svg">
<g opacity="0.5">
<path d="M14.2521 4.25452C13.3379 5.36917 11.8752 6.24833 10.4126 6.12274C10.2297 4.6156 10.9458 3.01427 11.7838 2.02521C12.698 0.879163 14.2978 0.0627973 15.5929 0C15.7452 1.56993 15.151 3.10847 14.2521 4.25452ZM15.5776 6.42103C13.4598 6.29543 11.6467 7.66127 10.6411 7.66127C9.62029 7.66127 8.08144 6.48383 6.40547 6.51522C4.22671 6.54662 2.2003 7.81827 1.08806 9.84348C-1.19735 13.8939 0.493855 19.8911 2.70309 23.1879C3.78486 24.8206 5.07993 26.6104 6.78637 26.5476C8.4014 26.4848 9.04132 25.4643 10.9915 25.4643C12.957 25.4643 13.5207 26.5476 15.2272 26.5162C16.9946 26.4848 18.1068 24.8834 19.1886 23.2507C20.4227 21.3982 20.9255 19.5928 20.956 19.4986C20.9255 19.4672 17.5431 18.1327 17.5126 14.1137C17.4821 10.754 20.1789 9.15271 20.3008 9.05852C18.7772 6.73501 16.4004 6.48383 15.5776 6.42103ZM27.8122 1.86822V26.3435H31.4994V17.9757H36.6035C41.2657 17.9757 44.5415 14.6789 44.5415 9.90628C44.5415 5.13368 41.3267 1.86822 36.7253 1.86822H27.8122ZM31.4994 5.07088H35.7502C38.9498 5.07088 40.7782 6.82921 40.7782 9.92198C40.7782 13.0147 38.9498 14.7888 35.735 14.7888H31.4994V5.07088ZM51.2758 26.5319C53.5917 26.5319 55.74 25.323 56.7151 23.4077H56.7913V26.3435H60.2042V14.1608C60.2042 10.6284 57.4617 8.35205 53.2413 8.35205C49.3256 8.35205 46.4308 10.6598 46.3241 13.8311H49.6456C49.9198 12.324 51.2758 11.3349 53.1346 11.3349C55.3896 11.3349 56.6542 12.4182 56.6542 14.412V15.7621L52.0529 16.0447C47.7715 16.3116 45.4556 18.117 45.4556 21.2569C45.4556 24.4282 47.8477 26.5319 51.2758 26.5319ZM52.2662 23.6275C50.3007 23.6275 49.0514 22.6541 49.0514 21.1627C49.0514 19.6242 50.255 18.7293 52.5557 18.588L56.6542 18.3211V19.7027C56.6542 21.9948 54.7649 23.6275 52.2662 23.6275ZM64.7598 33C68.3555 33 70.0467 31.5871 71.5246 27.3011L78 8.58754H74.2519L69.9096 23.0466H69.8334L65.4911 8.58754H61.6364L67.8832 26.4063L67.548 27.4895C66.9843 29.3264 66.0701 30.0328 64.4398 30.0328C64.1504 30.0328 63.5866 30.0014 63.3581 29.97V32.9058C63.5714 32.9686 64.4856 33 64.7598 33Z" fill="white"/>
</g>
</svg>
