<svg width="184" height="34" viewBox="0 0 184 34" fill="none" xmlns="http://www.w3.org/2000/svg">
<path d="M173.465 13.335L177.398 22.8351H177.445L181.286 13.335H184L175.719 32.4043H173.143L176.226 25.7335L170.774 13.335H173.465ZM164.54 12.8979C166.38 12.8979 167.829 13.381 168.887 14.3701C169.946 15.3592 170.474 16.6934 170.474 18.4186V26.5846H168.105V24.7443H167.99C166.955 26.2626 165.598 27.0216 163.895 27.0216C162.446 27.0216 161.227 26.5846 160.238 25.7334C159.249 24.8594 158.766 23.7782 158.766 22.4901C158.766 21.1329 159.272 20.0288 160.33 19.2237C161.366 18.4186 162.746 18.0045 164.47 18.0045C165.942 18.0045 167.162 18.2806 168.128 18.8097V18.2345C168.128 17.3604 167.783 16.6474 167.093 16.0263C166.403 15.4282 165.598 15.1292 164.678 15.1292C163.298 15.1292 162.194 15.7043 161.388 16.8774L159.203 15.4972C160.399 13.772 162.194 12.8979 164.54 12.8979ZM151.98 7.21631C153.659 7.21631 155.086 7.76838 156.258 8.89553C157.454 10.0227 158.03 11.3798 158.03 12.967C158.03 14.6002 157.431 15.9804 156.258 17.0615C155.108 18.1657 153.682 18.7177 151.98 18.7177H147.885V26.5616H145.401V7.21631H151.98ZM164.862 19.9597C163.85 19.9597 163.022 20.2128 162.331 20.6958C161.664 21.2019 161.319 21.8 161.319 22.5131C161.319 23.1572 161.595 23.7092 162.147 24.1233C162.699 24.5603 163.343 24.7674 164.079 24.7674C165.114 24.7674 166.058 24.3763 166.886 23.6172C167.714 22.8351 168.105 21.938 168.105 20.8799C167.323 20.2588 166.242 19.9597 164.862 19.9597ZM152.049 9.63161H147.885V16.3714H152.049C153.038 16.3714 153.866 16.0494 154.51 15.3823C155.178 14.7152 155.499 13.9332 155.499 13.013C155.499 12.1159 155.178 11.3338 154.51 10.6667C153.866 9.97665 153.038 9.63161 152.049 9.63161Z" fill="white" fill-opacity="0.5"/>
<path d="M110.298 12.921C111.977 12.921 113.312 13.6571 114.002 14.4851H114.116V13.3351H117.061V25.9866C117.061 31.1851 114.002 33.3244 110.368 33.3244C106.963 33.3244 104.915 31.0242 104.133 29.161L106.825 28.0338C107.308 29.1839 108.481 30.5411 110.368 30.5411C112.691 30.5411 114.116 29.0919 114.116 26.4006V25.3885H114.002C113.312 26.2396 111.977 26.9986 110.298 26.9986C106.779 26.9986 103.559 23.9393 103.559 19.9828C103.559 16.0034 106.779 12.921 110.298 12.921ZM130.541 12.944C134.199 12.944 135.97 15.8424 136.568 17.4296L136.89 18.2347L127.482 22.1221C128.195 23.5253 129.322 24.2614 130.886 24.2614C132.451 24.2154 133.555 23.4563 134.36 22.2832L136.752 23.8933C135.97 25.0435 134.107 27.0218 130.886 27.0218C126.884 27.0218 123.916 23.9393 123.916 19.9829C123.916 15.7963 126.93 12.944 130.541 12.944ZM61.6718 5.14624C65.0072 5.14624 67.3765 6.4574 69.1477 8.15959L67.0314 10.2758C65.7433 9.07976 64.0181 8.13663 61.6488 8.13663C57.2552 8.13663 53.8048 11.6791 53.8048 16.0726C53.8048 20.4661 57.2323 24.0086 61.6488 24.0086C64.5011 24.0086 66.1343 22.8584 67.1694 21.8233C68.0206 20.9721 68.5726 19.753 68.8026 18.0738H61.5798V15.0835H71.701C71.816 15.6125 71.862 16.2566 71.862 16.9467C71.862 19.178 71.2409 21.9613 69.2857 23.9395C67.3534 25.9407 64.9152 26.9989 61.6718 26.9989C55.6451 26.9989 50.5845 22.0993 50.5845 16.0726C50.5845 10.0458 55.6451 5.14624 61.6718 5.14624ZM79.9599 12.921C83.8475 12.921 87.0219 15.8883 87.0219 19.9598C87.0219 24.0083 83.8475 26.9986 79.9599 26.9986C76.0725 26.9986 72.8981 24.0083 72.8981 19.9598C72.8981 15.8883 76.0725 12.921 79.9599 12.921ZM95.3251 12.921C99.2123 12.921 102.387 15.8883 102.387 19.9598C102.387 24.0083 99.2123 26.9986 95.3251 26.9986C91.4371 26.9986 88.2627 24.0083 88.2627 19.9598C88.2627 15.8883 91.4371 12.921 95.3251 12.921ZM122.376 5.8824V26.5619H119.293V5.8824H122.376ZM79.983 15.7043C77.8667 15.7043 76.0265 17.4296 76.0265 19.9598C76.0265 22.4671 77.8667 24.2153 79.983 24.2153C82.0992 24.2153 83.9395 22.4671 83.9395 19.9598C83.9395 17.4296 82.0992 15.7043 79.983 15.7043ZM95.3251 15.7043C93.2083 15.7043 91.3683 17.4296 91.3683 19.9598C91.3683 22.4671 93.2083 24.2153 95.3251 24.2153C97.4411 24.2153 99.2811 22.4671 99.2811 19.9598C99.2811 17.4296 97.4411 15.7043 95.3251 15.7043ZM110.597 15.6813C108.458 15.6813 106.687 17.4985 106.687 19.9828C106.687 22.4441 108.481 24.2153 110.597 24.2153C112.691 24.2153 114.347 22.4441 114.347 19.9828C114.347 17.4985 112.691 15.6813 110.597 15.6813ZM130.633 15.6354C129.069 15.6354 126.884 17.0385 126.976 19.7528L133.256 17.1305C132.911 16.2564 131.876 15.6354 130.633 15.6354Z" fill="white" fill-opacity="0.5"/>
<path d="M34.271 6.2157C30.5492 4.06724 25.7899 5.34389 23.6391 9.06577L18.2174 18.4577C16.6486 21.1698 18.6682 22.1175 20.9202 23.4678L26.1372 26.4788C27.9039 27.4979 30.1604 26.8929 31.1795 25.1286L36.753 15.4766C38.6254 12.2332 37.5144 8.08816 34.271 6.2157Z" fill="white" fill-opacity="0.75"/>
<path d="M28.1363 10.1031L22.9193 7.09209C20.0394 5.49341 18.4085 5.38759 17.2261 7.26692L9.53175 20.5925C7.38325 24.312 8.66222 29.069 12.3818 31.2128C15.6251 33.0852 19.7703 31.9742 21.6427 28.7308L29.4843 15.1476C30.5079 13.3811 29.903 11.1222 28.1363 10.1031Z" fill="white" fill-opacity="0.5"/>
<path d="M29.1405 3.25292L25.4761 1.13667C21.4231 -1.20271 16.2406 0.184354 13.9012 4.23744L6.92442 16.3208C5.8939 18.1035 6.50577 20.3854 8.28852 21.4136L12.3922 23.7829C14.4187 24.9538 17.0088 24.2591 18.1797 22.2325L26.1501 8.42858C27.8017 5.5693 31.4569 4.58939 34.3161 6.24099L29.1405 3.25292Z" fill="white" fill-opacity="0.75"/>
<path d="M14.8923 7.69473L10.9313 5.41285C9.1646 4.39614 6.90806 4.9988 5.88904 6.76082L1.13667 14.9728C-1.20271 19.0144 0.184355 24.1854 4.23744 26.5179L7.25311 28.2546L10.9105 30.3616L12.4977 31.2748C9.67989 29.3887 8.78508 25.6093 10.508 22.6327L11.7386 20.5073L16.2449 12.7208C17.2616 10.9635 16.6566 8.71145 14.8923 7.69473Z" fill="white" fill-opacity="0.25"/>
</svg>
