<svg width="42" height="33" viewBox="0 0 42 33" fill="none" xmlns="http://www.w3.org/2000/svg">
<g opacity="0.5" clip-path="url(#clip0_115_813)">
<path d="M16.0425 13.1198C16.0425 8.93502 17.9809 5.20735 20.9997 2.80515C18.7922 1.04852 16.0062 -2.09808e-05 12.9784 -2.09808e-05C5.81046 -2.09808e-05 0 5.87381 0 13.1198C0 20.3658 5.81046 26.2396 12.9784 26.2396C16.0062 26.2396 18.7922 25.1911 20.9997 23.4345C17.9809 21.0322 16.0425 17.3046 16.0425 13.1198Z" fill="white"/>
<path d="M42 13.1198C42 20.3658 36.1896 26.2396 29.0217 26.2396C25.9939 26.2396 23.2078 25.1911 20.9995 23.4345C24.0191 21.0322 25.9575 17.3046 25.9575 13.1198C25.9575 8.93502 24.0191 5.20735 20.9995 2.80515C23.2078 1.04852 25.9939 -2.09808e-05 29.0217 -2.09808e-05C36.1896 -2.09808e-05 42 5.87381 42 13.1198Z" fill="white"/>
<path d="M30.5211 29.2632C30.672 29.2632 30.889 29.2924 31.0549 29.3582L30.8239 30.0723C30.6654 30.0065 30.5069 29.9847 30.3552 29.9847C29.865 29.9847 29.6199 30.3049 29.6199 30.8805V32.834H28.8698V29.3508H29.6125V29.7736C29.8072 29.4675 30.0886 29.2632 30.5211 29.2632ZM27.7499 30.0431H26.5243V31.617C26.5243 31.9666 26.6466 32.2 27.0221 32.2C27.2168 32.2 27.4619 32.1342 27.6847 32.0032L27.9008 32.6514C27.6633 32.8191 27.2885 32.9216 26.9642 32.9216C26.0771 32.9216 25.7677 32.4403 25.7677 31.6312V30.0431H25.0679V29.3508H25.7677V28.2939H26.5243V29.3508H27.7499V30.0431ZM18.1532 30.7863C18.2333 30.2834 18.5353 29.9405 19.0693 29.9405C19.552 29.9405 19.8622 30.2466 19.9415 30.7863H18.1532ZM20.7206 31.0925C20.7131 30.0065 20.0496 29.2632 19.0833 29.2632C18.0741 29.2632 17.3677 30.0065 17.3677 31.0925C17.3677 32.1992 18.103 32.9207 19.1345 32.9207C19.6536 32.9207 20.1288 32.7899 20.5472 32.4329L20.1792 31.8715C19.8913 32.105 19.5231 32.236 19.1774 32.236C18.6946 32.236 18.2548 32.01 18.1466 31.3835H20.7057C20.7131 31.2885 20.7206 31.1941 20.7206 31.0925ZM24.0148 30.2399C23.8061 30.1081 23.3811 29.9405 22.9412 29.9405C22.5302 29.9405 22.2851 30.094 22.2851 30.3492C22.2851 30.5819 22.5443 30.6479 22.8687 30.6912L23.2218 30.7421C23.972 30.8522 24.4258 31.1724 24.4258 31.7848C24.4258 32.4478 23.849 32.9216 22.8546 32.9216C22.2918 32.9216 21.7728 32.7756 21.3618 32.4695L21.715 31.879C21.9675 32.0758 22.343 32.2435 22.862 32.2435C23.3737 32.2435 23.6477 32.0909 23.6477 31.8206C23.6477 31.6246 23.4529 31.5145 23.0419 31.457L22.6887 31.4061C21.9171 31.2959 21.4988 30.9464 21.4988 30.3784C21.4988 29.6861 22.0615 29.2632 22.9338 29.2632C23.4818 29.2632 23.9794 29.3874 24.3392 29.6277L24.0148 30.2399ZM33.2616 29.9831C33.1073 29.9831 32.9644 30.0106 32.8317 30.0648C32.6996 30.1199 32.585 30.1965 32.4883 30.295C32.3919 30.3935 32.3159 30.5119 32.2606 30.6495C32.2053 30.7872 32.1781 30.9389 32.1781 31.1041C32.1781 31.2701 32.2053 31.421 32.2606 31.5586C32.3159 31.6963 32.3919 31.8148 32.4883 31.9132C32.585 32.0117 32.6996 32.0883 32.8317 32.1433C32.9644 32.1984 33.1073 32.2251 33.2616 32.2251C33.4159 32.2251 33.5595 32.1984 33.6916 32.1433C33.8245 32.0883 33.94 32.0117 34.0364 31.9132C34.1347 31.8148 34.2107 31.6963 34.2668 31.5586C34.3221 31.421 34.3493 31.2701 34.3493 31.1041C34.3493 30.9389 34.3221 30.7872 34.2668 30.6495C34.2107 30.5119 34.1347 30.3935 34.0364 30.295C33.94 30.1965 33.8245 30.1199 33.6916 30.0648C33.5595 30.0106 33.4159 29.9831 33.2616 29.9831ZM33.2616 29.2632C33.529 29.2632 33.7766 29.31 34.0043 29.4042C34.232 29.4975 34.4294 29.6269 34.5952 29.7912C34.7619 29.9555 34.8914 30.1499 34.9855 30.3734C35.0795 30.5978 35.1266 30.8414 35.1266 31.1041C35.1266 31.3667 35.0795 31.6104 34.9855 31.8347C34.8914 32.0583 34.7619 32.2534 34.5952 32.4178C34.4294 32.5821 34.232 32.7106 34.0043 32.8048C33.7766 32.8983 33.529 32.9449 33.2616 32.9449C32.9941 32.9449 32.7466 32.8983 32.5188 32.8048C32.2911 32.7106 32.0956 32.5821 31.9305 32.4178C31.7655 32.2534 31.6359 32.0583 31.5419 31.8347C31.4477 31.6104 31.4008 31.3667 31.4008 31.1041C31.4008 30.8414 31.4477 30.5978 31.5419 30.3734C31.6359 30.1499 31.7655 29.9555 31.9305 29.7912C32.0956 29.6269 32.2911 29.4975 32.5188 29.4042C32.7466 29.31 32.9941 29.2632 33.2616 29.2632ZM13.773 31.0925C13.773 30.4802 14.1699 29.9773 14.8185 29.9773C15.4383 29.9773 15.8567 30.4585 15.8567 31.0925C15.8567 31.7263 15.4383 32.2068 14.8185 32.2068C14.1699 32.2068 13.773 31.7047 13.773 31.0925ZM16.5631 31.0925V29.3508H15.8137V29.7736C15.5752 29.46 15.2155 29.2632 14.7253 29.2632C13.7589 29.2632 13.0022 30.028 13.0022 31.0925C13.0022 32.1559 13.7589 32.9216 14.7253 32.9216C15.2155 32.9216 15.5752 32.7247 15.8137 32.4111V32.834H16.5631V31.0925ZM12.3387 32.834V30.6479C12.3387 29.8245 11.8196 29.2707 10.9837 29.2632C10.5438 29.2557 10.0891 29.3942 9.77224 29.8829C9.53456 29.4967 9.15909 29.2632 8.63259 29.2632C8.26536 29.2632 7.90473 29.3725 7.62333 29.7803V29.3508H6.87402V32.834H7.63076V30.9031C7.63076 30.2983 7.9625 29.9773 8.47414 29.9773C8.97176 29.9773 9.22428 30.3049 9.22428 30.8956V32.834H9.98101V30.9031C9.98101 30.2983 10.3276 29.9773 10.8244 29.9773C11.3369 29.9773 11.582 30.3049 11.582 30.8956V32.834H12.3387Z" fill="white"/>
</g>
<defs>
<clipPath id="clip0_115_813">
<rect width="42" height="33" fill="white"/>
</clipPath>
</defs>
</svg>
