<svg width="43" height="33" viewBox="0 0 43 33" fill="none" xmlns="http://www.w3.org/2000/svg">
<g clip-path="url(#clip0_115_819)">
<path d="M42.1472 32.5527V32.6405H42.276C42.2602 32.6361 42.2435 32.6361 42.2277 32.6405L42.1472 32.5527ZM42.2277 32.4968C42.2588 32.4851 42.2931 32.4851 42.3242 32.4968C42.3359 32.5049 42.3453 32.5156 42.3519 32.5281C42.3584 32.5407 42.3618 32.5545 42.3618 32.5686C42.3618 32.5827 42.3584 32.5966 42.3519 32.6092C42.3453 32.6217 42.3359 32.6324 42.3242 32.6405C42.3004 32.6463 42.2756 32.6463 42.2518 32.6405L42.3564 32.7604H42.276L42.1714 32.6405V32.7604H42.107V32.4408L42.2277 32.4968ZM42.2277 32.9281C42.2621 32.9363 42.2979 32.9363 42.3323 32.9281C42.3656 32.9162 42.3958 32.8971 42.4208 32.8722C42.4458 32.8474 42.465 32.8174 42.4771 32.7843C42.4928 32.7519 42.5009 32.7164 42.5009 32.6805C42.5009 32.6445 42.4928 32.609 42.4771 32.5766C42.465 32.5436 42.4458 32.5136 42.4208 32.4887C42.3958 32.4639 42.3656 32.4448 42.3323 32.4328C42.2979 32.4247 42.2621 32.4247 42.2277 32.4328C42.1905 32.4253 42.1522 32.4253 42.1151 32.4328L42.0346 32.4888C42.0087 32.5146 41.987 32.5442 41.9703 32.5766C41.9487 32.6442 41.9487 32.7168 41.9703 32.7843C41.987 32.8168 42.0087 32.8464 42.0346 32.8722L42.1151 32.9281C42.147 32.9336 42.1797 32.9336 42.2116 32.9281H42.2277ZM42.2277 32.313C42.2729 32.3048 42.3193 32.3048 42.3645 32.313C42.4065 32.3293 42.4448 32.3537 42.4771 32.3849C42.5084 32.4188 42.5354 32.4564 42.5575 32.4968C42.5895 32.5845 42.5895 32.6806 42.5575 32.7684C42.5354 32.8087 42.5084 32.8463 42.4771 32.8802C42.4427 32.9087 42.4049 32.9329 42.3645 32.9521C42.3193 32.9603 42.2729 32.9603 42.2277 32.9521H42.0829C42.0425 32.9329 42.0046 32.9087 41.9703 32.8802C41.9389 32.8481 41.9142 32.8101 41.8979 32.7684C41.8766 32.7262 41.8656 32.6797 41.8656 32.6326C41.8656 32.5854 41.8766 32.5389 41.8979 32.4968C41.9136 32.4547 41.9382 32.4165 41.9702 32.3848C42.0021 32.3531 42.0405 32.3286 42.0829 32.313H42.2277ZM9.29187 31.0748C9.30132 30.867 9.37202 30.6665 9.49518 30.4982C9.61835 30.3299 9.78857 30.2012 9.98472 30.1281C10.1809 30.055 10.3943 30.0406 10.5986 30.0869C10.8029 30.1331 10.989 30.2379 11.1338 30.3882C11.2787 30.5385 11.3759 30.7278 11.4134 30.9325C11.4509 31.1372 11.4271 31.3483 11.3449 31.5396C11.2627 31.731 11.1257 31.8942 10.951 32.0089C10.7762 32.1237 10.5714 32.185 10.3618 32.1852C10.2165 32.1877 10.0722 32.1603 9.93808 32.1047C9.80393 32.0492 9.6828 31.9666 9.58231 31.8624C9.48182 31.7581 9.40415 31.6343 9.35416 31.4987C9.30418 31.3632 9.28297 31.2189 9.29187 31.0748ZM12.1478 31.0748V29.3334H11.3835V29.7567C11.2504 29.5907 11.0798 29.4579 10.8856 29.3691C10.6914 29.2803 10.479 29.238 10.2653 29.2455C9.7767 29.2455 9.30811 29.4382 8.96261 29.7813C8.61712 30.1243 8.42302 30.5896 8.42302 31.0748C8.42302 31.56 8.61712 32.0253 8.96261 32.3684C9.30811 32.7114 9.7767 32.9042 10.2653 32.9042C10.479 32.9117 10.6914 32.8693 10.8856 32.7805C11.0798 32.6917 11.2504 32.559 11.3835 32.3929V32.8163H12.1478V31.0748ZM38.0765 31.0748C38.086 30.867 38.1567 30.6665 38.2798 30.4982C38.403 30.3299 38.5732 30.2012 38.7694 30.1281C38.9655 30.055 39.179 30.0406 39.3833 30.0869C39.5875 30.1331 39.7736 30.2379 39.9185 30.3882C40.0633 30.5385 40.1606 30.7278 40.1981 30.9325C40.2356 31.1372 40.2118 31.3483 40.1296 31.5396C40.0474 31.731 39.9104 31.8942 39.7356 32.0089C39.5609 32.1237 39.356 32.185 39.1465 32.1852C39.0012 32.1877 38.8569 32.1603 38.7227 32.1047C38.5886 32.0492 38.4675 31.9666 38.367 31.8624C38.2665 31.7581 38.1888 31.6343 38.1388 31.4987C38.0888 31.3632 38.0676 31.2189 38.0765 31.0748ZM40.9325 31.0748V27.9594H40.128V29.7807C39.9969 29.6143 39.8279 29.4812 39.6349 29.3923C39.4419 29.3034 39.2304 29.2613 39.0178 29.2694C38.5292 29.2694 38.0606 29.4622 37.7151 29.8052C37.3696 30.1483 37.1755 30.6136 37.1755 31.0988C37.1755 31.584 37.3696 32.0493 37.7151 32.3923C38.0606 32.7354 38.5292 32.9281 39.0178 32.9281C39.2304 32.9363 39.4419 32.8942 39.6349 32.8053C39.8279 32.7164 39.9969 32.5833 40.128 32.4169V32.8403H40.9325V31.0748ZM21.673 29.9245C21.9042 29.9202 22.1278 30.0068 22.295 30.1654C22.4622 30.3239 22.5596 30.5417 22.566 30.7713H20.7317C20.7463 30.536 20.8528 30.3158 21.0287 30.1576C21.2046 29.9994 21.4358 29.9157 21.673 29.9245ZM21.673 29.2455C21.1844 29.2518 20.7183 29.4507 20.3773 29.7982C20.0364 30.1458 19.8484 30.6136 19.8548 31.0988C19.8612 31.584 20.0615 32.0467 20.4115 32.3853C20.7615 32.7239 21.2326 32.9105 21.7212 32.9042C22.2474 32.9206 22.7617 32.7476 23.1693 32.4169L22.7912 31.8497C22.5039 32.0861 22.1427 32.216 21.7695 32.2172C21.5153 32.2397 21.2623 32.1631 21.064 32.0035C20.8658 31.844 20.7379 31.614 20.7076 31.3624H23.3302C23.3302 31.2745 23.3302 31.1787 23.3302 31.0748C23.3523 30.8485 23.3276 30.62 23.2576 30.4035C23.1876 30.1869 23.0737 29.9869 22.9231 29.8156C22.7724 29.6443 22.5881 29.5053 22.3814 29.4073C22.1748 29.3093 21.9501 29.2542 21.7212 29.2455H21.673ZM30.9487 31.0748C30.9582 30.867 31.0289 30.6665 31.1521 30.4982C31.2752 30.3299 31.4454 30.2012 31.6416 30.1281C31.8378 30.055 32.0512 30.0406 32.2555 30.0869C32.4598 30.1331 32.6459 30.2379 32.7907 30.3882C32.9356 30.5385 33.0328 30.7278 33.0703 30.9325C33.1078 31.1372 33.084 31.3483 33.0018 31.5396C32.9196 31.731 32.7826 31.8942 32.6078 32.0089C32.4331 32.1237 32.2282 32.185 32.0187 32.1852C31.8737 32.1865 31.73 32.1583 31.5964 32.1023C31.4628 32.0464 31.3421 31.9638 31.2419 31.8598C31.1417 31.7557 31.0639 31.6324 31.0135 31.4974C30.9631 31.3624 30.941 31.2186 30.9487 31.0748ZM33.8047 31.0748V29.3334H33.0002V29.7567C32.8683 29.5892 32.698 29.4554 32.5035 29.3664C32.309 29.2775 32.0959 29.236 31.882 29.2455C31.3934 29.2455 30.9248 29.4382 30.5793 29.7813C30.2338 30.1243 30.0397 30.5896 30.0397 31.0748C30.0397 31.56 30.2338 32.0253 30.5793 32.3684C30.9248 32.7114 31.3934 32.9042 31.882 32.9042C32.0959 32.9136 32.309 32.8721 32.5035 32.7832C32.698 32.6943 32.8683 32.5604 33.0002 32.3929V32.8163H33.8047V31.0748ZM26.6206 31.0748C26.6112 31.321 26.6537 31.5664 26.7455 31.7952C26.8374 32.0241 26.9764 32.2313 27.1537 32.4036C27.331 32.5759 27.5427 32.7095 27.7751 32.7957C28.0075 32.8819 28.2555 32.9188 28.5031 32.9042C28.9615 32.9268 29.4119 32.7786 29.7661 32.4888L29.3961 31.8737C29.1334 32.0751 28.8109 32.1847 28.479 32.1852C28.334 32.1878 28.19 32.1604 28.0562 32.1047C27.9225 32.0491 27.8018 31.9664 27.702 31.862C27.6021 31.7576 27.5252 31.6337 27.4762 31.4982C27.4271 31.3626 27.407 31.2185 27.417 31.0748C27.407 30.9308 27.4272 30.7863 27.4761 30.6503C27.5251 30.5144 27.6019 30.39 27.7016 30.285C27.8014 30.1799 27.9219 30.0965 28.0557 30.04C28.1895 29.9834 28.3336 29.955 28.479 29.9564C28.8117 29.9599 29.1341 30.0722 29.3961 30.276L29.7661 29.6609C29.4119 29.371 28.9615 29.2229 28.5031 29.2455C28.2555 29.2308 28.0075 29.2678 27.7751 29.354C27.5427 29.4402 27.331 29.5737 27.1537 29.746C26.9764 29.9183 26.8374 30.1256 26.7455 30.3544C26.6537 30.5833 26.6112 30.8287 26.6206 31.0748ZM36.5078 29.2455C36.3214 29.2395 36.1369 29.284 35.9739 29.374C35.811 29.464 35.6757 29.5963 35.5826 29.7567V29.3334H34.8183V32.8163H35.5826V30.8671C35.5826 30.284 35.84 29.9644 36.3388 29.9644C36.5039 29.9633 36.6676 29.9931 36.8215 30.0523L37.0548 29.3413C36.879 29.2799 36.6942 29.2475 36.5078 29.2455ZM15.945 29.6129C15.5025 29.3536 14.9943 29.226 14.4808 29.2455C13.5878 29.2455 13.0086 29.6689 13.0086 30.3639C13.0086 30.931 13.435 31.2745 14.2314 31.3864L14.5854 31.4423C15.0118 31.4982 15.2129 31.6021 15.2129 31.8018C15.2129 32.0015 14.9313 32.2251 14.4084 32.2251C13.9861 32.2394 13.5717 32.1097 13.2339 31.8577L12.8719 32.4488C13.3179 32.7617 13.8546 32.9215 14.4004 32.9042C15.414 32.9042 16.0094 32.4328 16.0094 31.7698C16.0094 31.1068 15.5428 30.8352 14.7704 30.7233L14.4084 30.6754C14.0786 30.6275 13.8131 30.5636 13.8131 30.3319C13.8131 30.1002 14.0625 29.9245 14.4889 29.9245C14.8728 29.9302 15.2491 30.0318 15.583 30.2201L15.9209 29.6129H15.945ZM25.8402 29.2455C25.6539 29.2395 25.4693 29.284 25.3064 29.374C25.1435 29.464 25.0082 29.5963 24.9151 29.7567V29.3334H24.1347V32.8163H24.9392V30.8671C24.9392 30.284 25.1966 29.9644 25.6954 29.9644C25.8605 29.9633 26.0242 29.9931 26.1781 30.0523L26.4114 29.3413C26.2356 29.2799 26.0508 29.2475 25.8644 29.2455H25.8402ZM19.3078 29.3334H18.0367V28.2789H17.2322V29.3334H16.5162V30.0283H17.2322V31.626C17.2322 32.4249 17.5459 32.9201 18.455 32.9201C18.7936 32.9215 19.1256 32.8273 19.4124 32.6485L19.2273 31.9535C19.0218 32.0738 18.7898 32.1423 18.5515 32.1533C18.1654 32.1533 18.0367 31.9136 18.0367 31.5701V29.9724H19.3078V29.2774V29.3334ZM7.81965 32.8163V30.6275C7.83266 30.4433 7.80585 30.2586 7.74102 30.0856C7.67619 29.9126 7.57485 29.7554 7.44379 29.6245C7.31274 29.4936 7.155 29.3921 6.98116 29.3267C6.80733 29.2613 6.62143 29.2336 6.43593 29.2455C6.1922 29.23 5.94876 29.2797 5.7309 29.3893C5.51303 29.4988 5.32868 29.6643 5.19701 29.8686C5.07639 29.6689 4.90342 29.5054 4.69656 29.3957C4.48969 29.2859 4.25671 29.234 4.02246 29.2455C3.81909 29.236 3.61671 29.2788 3.4349 29.3698C3.25309 29.4608 3.09801 29.5968 2.98467 29.7647V29.3334H2.18018V32.8163H2.98467V30.8831C2.96416 30.7617 2.97219 30.6372 3.00812 30.5194C3.04405 30.4016 3.10691 30.2937 3.1918 30.2039C3.27669 30.1142 3.38131 30.0452 3.49749 30.0023C3.61367 29.9594 3.73827 29.9437 3.86156 29.9564C4.37643 29.9564 4.66605 30.284 4.66605 30.8751V32.8163H5.47054V30.8831C5.45174 30.768 5.45855 30.6502 5.49047 30.538C5.52239 30.4258 5.57866 30.3219 5.65533 30.2336C5.73199 30.1453 5.8272 30.0747 5.93425 30.0269C6.04131 29.979 6.15762 29.9549 6.27503 29.9564C6.79795 29.9564 7.07952 30.284 7.07952 30.8751V32.8163H7.81965Z" fill="white"/>
<path d="M27.3125 2.80396H15.6876V23.422H27.3125V2.80396Z" fill="#F47D20"/>
<path d="M16.4277 13.109C16.4265 11.1206 16.8832 9.15833 17.7631 7.37222C18.6429 5.58611 19.9226 4.0235 21.5041 2.80394C19.8497 1.49158 17.9025 0.592312 15.8258 0.181563C13.7492 -0.229185 11.6036 -0.139432 9.56904 0.443293C7.53451 1.02602 5.67039 2.08472 4.13304 3.53059C2.59569 4.97647 1.42994 6.76734 0.733595 8.75299C0.0372482 10.7386 -0.169394 12.8611 0.131003 14.9425C0.431399 17.0238 1.23007 19.0032 2.46003 20.7148C3.68999 22.4263 5.31536 23.82 7.19979 24.7789C9.08422 25.7378 11.1728 26.234 13.2902 26.2259C16.2666 26.228 19.1581 25.2409 21.5041 23.422C19.9224 22.2007 18.6428 20.6367 17.7629 18.8493C16.8831 17.0619 16.4264 15.0984 16.4277 13.109Z" fill="#DE1F31"/>
<path d="M42.5897 21.2331V20.7698H42.453L42.3001 21.1133L42.1392 20.7698H42.0105V21.2731H42.107V20.8497L42.2518 21.1852H42.3484L42.4932 20.8497V21.2331H42.5897ZM41.737 21.2331V20.8098H41.9059V20.7698H41.4715V20.8497H41.6404V21.2731L41.737 21.2331ZM43 13.109C42.9842 15.5773 42.2719 17.9919 40.944 20.0786C39.616 22.1653 37.7257 23.8407 35.4873 24.9146C33.249 25.9884 30.7524 26.4178 28.2807 26.154C25.8091 25.8902 23.4614 24.9437 21.504 23.422C23.0849 22.2008 24.364 20.6374 25.2438 18.8508C26.1237 17.0642 26.5811 15.1017 26.5811 13.1129C26.5811 11.1242 26.1237 9.16168 25.2438 7.37511C24.364 5.58853 23.0849 4.02507 21.504 2.80394C23.4608 1.28262 25.8078 0.336221 28.2787 0.0720824C30.7497 -0.192056 33.2457 0.236636 35.4837 1.30954C37.7218 2.38244 39.6123 4.05662 40.9408 6.14219C42.2693 8.22776 42.9827 10.6413 43 13.109Z" fill="#F3A837"/>
</g>
<defs>
<clipPath id="clip0_115_819">
<rect width="43" height="33" fill="white"/>
</clipPath>
</defs>
</svg>
