<svg viewBox="0 0 734 252" fill="none" xmlns="http://www.w3.org/2000/svg">
<g clip-path="url(#clip0_17_7)">
<path d="M325.59 0.100006C325.59 0.100006 325.7 172.7 325.74 252.09H241.58C241.58 252.09 241.61 246.42 241.61 243.58C241.54 201.86 241.54 160.14 241.51 118.42C241.51 114.92 241.29 107.51 241.29 104.02H237.82C236.6 108.75 234.59 116.72 233.1 121.58C219.72 165.08 206.36 208.58 192.99 252.08H133.35C118.66 204.34 101.26 151.7 86.41 104.01H84.51H82.64C82.45 132.03 82.18 166.81 82.05 194.83C81.96 213.91 81.63 233 81.41 252.08C57.43 252.08 24.35 252.25 0.380033 252.25C0.380033 252.25 0.350033 251.4 0.380033 243.73C0.740033 162.4 0.600003 81.07 0.600003 -0.26001C26.55 -0.16001 52.49 -0.0600122 78.44 0.0499878C104.2 0.159988 120.5 12.38 127.75 37.07C137.88 71.57 150.96 106.19 161.26 140.64L163.49 140.66H164.72C175 106.21 188.46 71.87 198.5 37.34C205.69 12.63 221.6 0.319985 247.59 0.109985C269.38 -0.0700147 291.17 0.0499976 312.95 0.0599976" fill="#01674A"/>
<path d="M473.89 252.06C473.97 211.6 474.25 171.14 473.96 130.68C473.9 122.55 473.89 119.72 473.89 119.72C553.09 120.05 652.86 119.7 732.06 119.72L727.8 128.93C717.51 147.06 694.91 163.87 675.88 172.09C675.88 172.09 676.58 173.45 680.47 179.08C697.16 203.23 713.39 227.7 729.78 252.06H635.5C624.72 234.14 614.07 216.13 603.12 198.31C594.36 184.06 591.27 177.68 591.27 177.68C591.27 177.68 573.29 177.61 565.19 177.68C558.43 177.74 556.57 177.72 556.57 177.72C556.88 199.6 556.65 230.18 556.62 252.06H473.89Z" fill="#01674A"/>
<path d="M360.37 252.06C360.26 198.87 360.13 145.69 360.04 92.5C360 64.79 360.23 37.08 359.9 9.37C359.82 2.44 359.86 -0.109985 359.86 -0.109985C381.33 0.290015 412 0.190001 433.48 -0.0299988C438.82 -0.0833321 441.49 -0.109985 441.49 -0.109985C441.26 81.43 441.24 170.52 441.17 252.06H360.36H360.37Z" fill="#01674A"/>
<path d="M655.62 0.207526C700.77 0.517526 733.82 32.3075 733.65 84.6475C733.65 101.888 733.44 103.058 733.44 103.058C690.52 102.968 628.67 103.088 585.75 102.768C532.88 102.368 491.43 70.7175 474.1 23.3475C468.59 8.30754 468.35 0.0875313 468.35 0.0875313C493.01 -0.0824687 540.7 0.0475228 565.37 0.0475228C565.37 -0.0024772 625.66 -0.00247353 655.62 0.207526Z" fill="url(#paint0_linear_17_7)"/>
</g>
<defs>
<linearGradient id="paint0_linear_17_7" x1="514.89" y1="-46.4425" x2="698.92" y2="137.588" gradientUnits="userSpaceOnUse">
<stop offset="0.23" stop-color="#01ABFC"/>
<stop offset="0.87" stop-color="#265BDA"/>
</linearGradient>
<clipPath id="clip0_17_7">
<rect width="734" height="252" fill="white"/>
</clipPath>
</defs>
</svg>
