<svg width="78" height="33" viewBox="0 0 78 33" fill="none" xmlns="http://www.w3.org/2000/svg">
<path d="M67.4699 15.753C67.0757 16.0259 66.5035 16.1608 65.7205 16.1608H65.3807H64.944L65.5395 12.9672H65.8412H66.1104C66.7603 12.9672 67.2351 13.0711 67.5622 13.2819C67.8178 13.4473 68.1208 13.7746 68.1208 14.3957C68.1208 15.1441 67.7683 15.5467 67.4699 15.753ZM21.1507 19.761H15.1416L15.53 17.6736H19.2991L19.7274 15.3224H15.9945L16.3554 13.2564H22.3539L21.1507 19.761ZM70.707 11.4646C69.8235 10.8631 68.4866 10.5601 66.7337 10.5601H62.143L60.4366 19.7614H54.4229L54.8085 17.6739H58.4315L58.8623 15.3291L55.2415 15.3356L55.6292 13.257H59.3602L59.8566 10.5604H52.2777L50.6579 19.2893H47.8788L49.5104 10.5604H45.5482L43.9284 19.2893H41.2187L42.8518 10.5604H38.8936L37.1828 19.7617H31.1265L31.5081 17.6742H35.1475L35.5761 15.343L31.9423 15.3396L32.3282 13.257H36.1006L36.5945 10.5604H12.9828L11.6387 17.8521L8.96117 10.5601H4.85169L2.63989 22.4595H6.56431L7.90277 14.9674L10.5014 22.4595H24.5675L26.2774 13.2567H28.4783L26.7676 22.4595H63.7798L64.8518 16.6498L66.5895 22.4595H70.5161L68.7171 17.7126L69.1278 17.6244C70.0327 17.432 70.7411 17.0174 71.2325 16.3962C71.7249 15.7692 71.9749 14.9643 71.9749 13.9974C71.9752 12.8713 71.5612 12.0433 70.707 11.4646Z" fill="#8DC640"/>
<path d="M73.9424 21.0522L74.4772 21.0245C74.5905 21.0193 74.6799 21.0024 74.7424 20.9756C74.8049 20.9495 74.8523 20.9096 74.8826 20.8558C74.9129 20.8023 74.9275 20.7461 74.9235 20.6858C74.9188 20.5967 74.8826 20.5257 74.8155 20.4713C74.748 20.4175 74.644 20.3954 74.5044 20.4018L73.9093 20.432L73.9424 21.0522ZM73.7447 22.1088L73.6484 20.2371L74.4846 20.1953C74.6517 20.1867 74.7796 20.1971 74.869 20.2266C74.9587 20.2555 75.0308 20.3115 75.0878 20.3942C75.1444 20.4765 75.176 20.5681 75.18 20.6714C75.1877 20.8041 75.1497 20.9179 75.068 21.0138C74.9863 21.1087 74.856 21.1736 74.6768 21.2074C74.744 21.2363 74.7963 21.2639 74.8315 21.2925C74.908 21.3552 74.981 21.4351 75.051 21.5316L75.4025 22.0246L75.0918 22.0403L74.8226 21.6635C74.744 21.5544 74.6796 21.4714 74.6295 21.4142C74.5796 21.3571 74.5348 21.318 74.4964 21.2959C74.4589 21.2738 74.4187 21.2593 74.3806 21.2513C74.3516 21.247 74.3054 21.2464 74.2411 21.2498L73.9533 21.2642L73.9947 22.0962L73.7447 22.1088Z" fill="#8DC640"/>
<path d="M72.928 21.203C72.9088 20.8157 73.0413 20.4445 73.3028 20.1574C73.5643 19.8697 73.9239 19.6998 74.3145 19.6801C75.1185 19.6386 75.8064 20.2555 75.8479 21.0549C75.8491 21.0794 75.8507 21.1056 75.8507 21.1292C75.8507 21.8964 75.2423 22.539 74.4627 22.5796C73.6575 22.6202 72.9701 22.0027 72.928 21.203ZM74.2978 19.3817C73.8289 19.4066 73.3956 19.61 73.0809 19.957C72.7659 20.3037 72.6049 20.7524 72.6291 21.2193C72.6798 22.1819 73.5089 22.9247 74.4788 22.8765C75.4474 22.8267 76.197 22.0027 76.1468 21.0401V21.0392C76.0979 20.0763 75.2689 19.3328 74.2978 19.3817Z" fill="#8DC640"/>
</svg>
