<svg width="112" height="33" viewBox="0 0 112 33" fill="none" xmlns="http://www.w3.org/2000/svg">
<path fill-rule="evenodd" clip-rule="evenodd" d="M4.55559 20.3134L4.55656 22.5949V23.1622C4.55848 25.2661 4.5604 27.6524 4.55559 28.214C4.55559 28.7284 4.30462 28.9765 3.795 28.9852C2.78345 28.9938 1.76348 28.9938 0.751931 28.9852C0.232693 28.9852 0 28.7371 0 28.214V4.74275C0 4.23698 0.224042 4.01582 0.733664 4.01582C1.60579 4.01582 2.47793 4.01197 3.34885 4.00813H3.35173C5.43252 3.99851 7.51332 3.9889 9.59388 4.03313C13.8437 4.12255 17.0043 7.24831 17.1918 11.4558C17.2899 13.6962 16.861 15.779 15.3937 17.5499C13.9072 19.348 11.9295 20.2163 9.61216 20.3047C8.33522 20.3576 5.73734 20.3269 4.84887 20.3163L4.55559 20.3134ZM4.5729 16.5845L5.97388 16.5826C6.88736 16.5807 7.78641 16.5787 8.69003 16.5845C9.84389 16.5941 10.7843 16.1501 11.4997 15.2741C12.6093 13.9184 12.8959 12.3606 12.4487 10.6945C11.9391 8.79834 10.4891 7.73582 8.51983 7.73582H4.58251C4.5729 10.7032 4.5729 13.6174 4.5729 16.5845ZM32.7336 28.1611C32.9663 28.7284 33.3336 29.0467 33.9952 28.9938C34.4077 28.9582 36.143 28.9851 36.5911 28.9938C37.4325 28.9938 37.7008 28.5948 37.3517 27.8332C33.8115 20.1067 30.273 12.377 26.7376 4.64468C26.5415 4.21102 26.2722 4.0514 25.8068 4.06005C25.3597 4.06967 25.1626 4.31678 24.9924 4.68025C23.1717 8.62333 21.3489 12.5657 19.5233 16.5066L19.3147 16.9585L19.3022 16.9855L18.981 17.6807C16.7486 22.5055 14.7312 26.8652 14.2706 27.8698C13.9399 28.5775 14.2177 28.9852 14.9956 28.9852H17.5918C18.3707 28.9852 18.6207 28.8255 18.9156 28.1169L19.1705 27.5149L19.3118 27.1806C19.6743 26.3267 20.0359 25.4728 20.3839 24.6094C20.5089 24.2998 20.6609 24.1671 21.0282 24.1671C24.1244 24.1844 27.2107 24.1757 30.3067 24.1671H30.6048C30.9346 24.1671 31.1048 24.2459 31.2298 24.5651C31.5596 25.3863 31.9057 26.2036 32.2519 27.02L32.2615 27.0411L32.2875 27.1036L32.3115 27.1604L32.7346 28.1601L32.7336 28.1611ZM22.3167 20.4019H29.3155C28.1326 17.8324 26.9542 15.2609 25.7799 12.6876C24.6196 15.2564 23.4652 17.8278 22.3167 20.4019ZM50.5322 4.59179C48.724 7.25192 46.9074 9.90629 45.0823 12.5549C45.0266 12.478 44.3737 11.527 43.5035 10.2618C42.1979 8.36083 40.8895 6.46201 39.5787 4.56487C39.4354 4.36102 39.1671 4.10428 38.944 4.09563C37.721 4.04948 36.4964 4.04346 35.2728 4.07736C34.7808 4.08697 34.5308 4.55621 34.7269 5.00718C34.7673 5.11007 36.9546 8.36756 39.1729 11.6702L39.1815 11.6827C40.4046 13.5039 41.6371 15.3386 42.5217 16.6633C42.666 16.8826 42.7429 17.1384 42.7458 17.3989C42.7516 20.9692 42.7544 24.5392 42.7544 28.1082C42.7544 28.764 42.9689 28.9852 43.6314 28.9852H46.361C47.1129 28.9852 47.3187 28.7813 47.3187 28.0457C47.3216 24.5526 47.3187 21.0576 47.31 17.5586C47.2997 17.179 47.4127 16.8061 47.6321 16.496C50.1855 12.7736 52.7334 9.04738 55.2762 5.31776C55.4734 5.0341 55.6339 4.76006 55.4551 4.4139C55.2762 4.06005 54.9358 4.06005 54.6051 4.06005H54.1214L53.731 4.06293C53.0079 4.06678 52.2829 4.06966 51.5618 4.05139C51.0966 4.04178 50.7928 4.20236 50.5332 4.59179H50.5322Z" fill="white"/>
<path fill-rule="evenodd" clip-rule="evenodd" d="M106.362 19.0124C106.487 19.2518 106.595 19.4643 106.703 19.6691C108.136 22.342 109.569 25.0189 111.001 27.6976C111.09 27.836 111.16 27.986 111.206 28.1428C111.314 28.5514 111.071 28.9072 110.651 28.9159C109.398 28.9332 108.143 28.9245 106.891 28.9245C106.516 28.9245 106.398 28.6399 106.273 28.3736C104.867 25.5045 103.454 22.6352 102.066 19.7585C101.896 19.4028 101.699 19.2518 101.287 19.2604C100.332 19.2871 99.3768 19.2871 98.422 19.2604C98.0287 19.2508 97.9124 19.3855 97.9124 19.7758C97.922 22.5026 97.922 25.2209 97.922 27.9476C97.922 28.7995 97.796 28.9245 96.946 28.9245H94.3498C93.6606 28.9245 93.4731 28.7466 93.4731 28.063V4.83597C93.4731 4.2225 93.6789 4.00904 94.296 4.00904C97.5643 4.00904 100.83 3.99173 104.098 4.00904C107.749 4.02827 110.73 6.39921 111.376 9.88965C112.064 13.6029 110.516 17.0306 106.881 18.7633C106.706 18.839 106.533 18.9222 106.362 19.0124ZM97.9931 15.6462C98.1903 15.6462 101.878 15.6366 103.579 15.6462C104.239 15.6501 104.881 15.4342 105.405 15.0327C106.747 14.0375 107.374 12.1365 106.908 10.4589C106.415 8.67328 105.11 7.67808 103.256 7.67808H97.9931V15.6462ZM62.2104 7.67808V14.6683H70.5709C71.2786 14.6683 71.4844 14.8731 71.4844 15.5568V17.5104C71.4844 18.1239 71.2699 18.3374 70.6517 18.3374H62.2191V25.3276H72.2546C73.0236 25.3276 73.1938 25.4959 73.1938 26.2603V28.1255C73.1938 28.7909 72.988 28.9957 72.3171 28.9957C68.0824 28.9957 58.827 29.0053 58.4424 28.9957C58 28.988 57.7731 28.8197 57.7087 28.4514C57.6991 28.3947 57.6904 12.6875 57.6904 5.04847C57.6904 4.16192 57.8423 4.01961 58.7193 4.01961H72.1825C73.0332 4.01961 73.1851 4.17058 73.1851 5.03213V6.80787C73.1851 7.50019 72.9966 7.68673 72.2815 7.68673C69.1209 7.67712 62.4431 7.67711 62.2104 7.67711V7.67808ZM75.6717 16.4799V4.88982C75.6717 4.16192 75.8332 4.00135 76.5582 4.00135H90.2539C90.9519 4.00135 91.1308 4.1802 91.1308 4.85521V6.85306C91.1308 7.48384 90.9519 7.67039 90.3067 7.67039H80.7734C80.1205 7.67039 80.1205 7.67038 80.1205 8.30981C80.1205 10.2637 80.1302 12.2173 80.1109 14.1722C80.1109 14.5625 80.2282 14.6693 80.6225 14.6693C83.1994 14.652 85.7867 14.6597 88.3646 14.6597C89.3048 14.6597 89.4298 14.7847 89.4298 15.6904V17.5556C89.4298 18.1162 89.224 18.3287 88.6425 18.3287C87.2819 18.3383 81.9196 18.3383 80.5859 18.3287C80.2552 18.3287 80.1119 18.3912 80.1119 18.7643C80.1292 20.8076 80.1292 22.8506 80.1119 24.893C80.1119 25.2564 80.2465 25.3276 80.5859 25.3276C83.7819 25.3199 86.9685 25.3199 90.1644 25.3199C91.0058 25.3199 91.1308 25.4439 91.1308 26.2968V28.162C91.1308 28.7918 90.9423 28.988 90.3154 28.988H76.6207C75.8236 28.988 75.6813 28.8457 75.6813 28.0639C75.6717 24.2084 75.6688 20.348 75.6717 16.4818V16.4799Z" fill="#03A9F4"/>
</svg>
