<svg width="137" height="33" viewBox="0 0 137 33" fill="none" xmlns="http://www.w3.org/2000/svg">
<g opacity="0.5" clip-path="url(#clip0_115_913)">
<path d="M51.196 7.37903H43.6227C43.3733 7.37841 43.1317 7.46654 42.9413 7.62768C42.7509 7.78882 42.624 8.01245 42.5833 8.25857L39.5106 27.4143C39.4974 27.5042 39.5038 27.5958 39.5294 27.6829C39.555 27.77 39.5992 27.8505 39.6589 27.9189C39.7186 27.9873 39.7924 28.042 39.8753 28.0791C39.9581 28.1162 40.0481 28.1349 40.1388 28.134H43.7598C44.0093 28.1346 44.2508 28.0465 44.4413 27.8853C44.6317 27.7242 44.7586 27.5005 44.7993 27.2544L45.6217 22.08C45.6624 21.8338 45.7893 21.6102 45.9797 21.4491C46.1702 21.2879 46.4117 21.1998 46.6612 21.2004H49.117C54.1049 21.2004 56.9796 18.8321 57.7411 14.0955C57.9503 13.2688 57.9717 12.4056 57.8036 11.5695C57.6356 10.7334 57.2825 9.94556 56.7702 9.26377C55.6394 7.99585 53.6861 7.37903 51.196 7.37903ZM52.0755 14.3811C51.6529 17.0654 49.5739 17.0654 47.575 17.0654H46.4327L47.2437 12.0623C47.2655 11.9139 47.3397 11.7782 47.4528 11.6798C47.566 11.5813 47.7106 11.5266 47.8605 11.5254H48.386C49.7567 11.5254 51.0475 11.5254 51.71 12.3022C51.9236 12.5988 52.0682 12.9394 52.1334 13.299C52.1986 13.6587 52.1828 14.0284 52.0869 14.3811H52.0755Z" fill="white"/>
<path d="M73.8471 14.3011H70.2147C70.0658 14.2994 69.9213 14.3517 69.8079 14.4483C69.6945 14.5449 69.6199 14.6792 69.5979 14.8265L69.4265 15.8317L69.1752 15.4662C68.3871 14.3239 66.6394 13.9584 64.8918 13.9584C62.9022 13.9902 60.9903 14.7354 59.5039 16.0583C58.0176 17.3811 57.0556 19.1937 56.7931 21.1661C56.6044 22.1266 56.6273 23.1167 56.8601 24.0675C57.0928 25.0183 57.5299 25.907 58.141 26.6718C58.7192 27.2957 59.4296 27.7825 60.2201 28.0967C61.0106 28.4109 61.8613 28.5446 62.71 28.488C63.6418 28.4993 64.5664 28.3243 65.4295 27.9732C66.2926 27.622 67.0768 27.1019 67.736 26.4433L67.5761 27.4371C67.561 27.5263 67.5657 27.6177 67.5899 27.7048C67.614 27.7919 67.6571 27.8727 67.7159 27.9414C67.7748 28.01 67.848 28.0649 67.9304 28.1021C68.0129 28.1393 68.1025 28.158 68.1929 28.1567H71.4598C71.7092 28.1573 71.9508 28.0692 72.1412 27.9081C72.3317 27.7469 72.4586 27.5233 72.4992 27.2772L74.4639 15.0207C74.479 14.9315 74.4743 14.8401 74.4501 14.753C74.426 14.6658 74.3829 14.5851 74.3241 14.5164C74.2652 14.4477 74.192 14.3928 74.1095 14.3556C74.0271 14.3184 73.9375 14.2998 73.8471 14.3011ZM68.7869 21.2689C68.6397 22.2402 68.143 23.1243 67.39 23.7553C66.6371 24.3863 65.6796 24.7207 64.6976 24.6957C64.2448 24.7239 63.7913 24.6526 63.369 24.4868C62.9467 24.3211 62.5658 24.0649 62.2531 23.7362C61.9803 23.3844 61.7878 22.9771 61.6891 22.5429C61.5904 22.1088 61.588 21.6583 61.682 21.2232C61.8333 20.2579 62.3279 19.3797 63.0751 18.7501C63.8222 18.1205 64.7715 17.7818 65.7485 17.7964C66.2 17.755 66.6549 17.8217 67.0756 17.991C67.4962 18.1603 67.8705 18.4274 68.1675 18.7701C68.4644 19.1128 68.6755 19.5213 68.7832 19.9618C68.8909 20.4023 68.8922 20.8621 68.7869 21.3031V21.2689Z" fill="white"/>
<path d="M93.163 14.3012H89.5192C89.3484 14.302 89.1803 14.3439 89.0292 14.4234C88.8781 14.503 88.7484 14.6178 88.6511 14.7581L83.6251 22.0686L81.4891 15.0437C81.423 14.8286 81.2898 14.6404 81.1088 14.5068C80.9279 14.3731 80.7088 14.3011 80.4839 14.3012H76.8972C76.7974 14.2999 76.6987 14.3225 76.6093 14.367C76.5199 14.4114 76.4425 14.4766 76.3833 14.557C76.3241 14.6373 76.2849 14.7307 76.269 14.8292C76.2531 14.9278 76.2609 15.0287 76.2918 15.1236L80.3125 26.7519L76.5316 31.9834C76.4631 32.0765 76.4221 32.1869 76.4133 32.3022C76.4045 32.4174 76.4282 32.5328 76.4818 32.6352C76.5354 32.7376 76.6166 32.8229 76.7163 32.8813C76.816 32.9398 76.9301 32.969 77.0457 32.9658H80.6781C80.8483 32.9693 81.0168 32.9304 81.1683 32.8526C81.3199 32.7748 81.4497 32.6607 81.5462 32.5203L93.6656 15.2835C93.7303 15.1887 93.7678 15.0779 93.774 14.9632C93.7802 14.8485 93.7548 14.7344 93.7007 14.6331C93.6465 14.5318 93.5656 14.4473 93.4668 14.3888C93.368 14.3303 93.255 14.3 93.1402 14.3012H93.163Z" fill="white"/>
<path d="M105.237 7.37903H97.6633C97.4139 7.37841 97.1723 7.46654 96.9819 7.62768C96.7914 7.78882 96.6645 8.01245 96.6239 8.25857L93.5626 27.4143C93.5475 27.5035 93.5522 27.5949 93.5764 27.682C93.6006 27.7692 93.6436 27.85 93.7024 27.9186C93.7613 27.9873 93.8345 28.0422 93.917 28.0794C93.9994 28.1166 94.089 28.1352 94.1794 28.134H98.0745C98.2482 28.1334 98.416 28.071 98.5478 27.958C98.6797 27.8449 98.767 27.6887 98.7942 27.5171L99.6623 22.08C99.703 21.8338 99.8299 21.6102 100.02 21.4491C100.211 21.2879 100.452 21.1998 100.702 21.2004H103.1C108.088 21.2004 110.963 18.8321 111.725 14.0955C111.937 13.2755 111.964 12.4186 111.804 11.5869C111.644 10.7551 111.301 9.96942 110.799 9.28661C109.657 7.99585 107.772 7.37903 105.237 7.37903ZM106.116 14.3811C105.705 17.0654 103.626 17.0654 101.616 17.0654H100.519L101.319 12.0623C101.341 11.912 101.416 11.7748 101.532 11.676C101.648 11.5773 101.795 11.5238 101.947 11.5254H102.472C103.832 11.5254 105.122 11.5254 105.796 12.3022C106.005 12.6011 106.146 12.9421 106.209 13.3012C106.272 13.6603 106.256 14.0289 106.162 14.3811H106.116Z" fill="white"/>
<path d="M127.933 14.3011H124.301C124.152 14.2994 124.008 14.3517 123.894 14.4483C123.781 14.5449 123.706 14.6792 123.684 14.8265L123.524 15.8317L123.273 15.4662C122.485 14.3239 120.737 13.9584 118.989 13.9584C116.985 13.9732 115.054 14.7102 113.55 16.0342C112.045 17.3581 111.069 19.1802 110.799 21.1661C110.61 22.1273 110.633 23.1185 110.868 24.0697C111.103 25.0209 111.544 25.9091 112.159 26.6718C112.737 27.2957 113.447 27.7825 114.238 28.0967C115.028 28.4109 115.879 28.5446 116.728 28.488C117.658 28.4997 118.581 28.3248 119.442 27.9736C120.303 27.6224 121.086 27.1021 121.742 26.4433L121.582 27.4371C121.569 27.5269 121.576 27.6185 121.601 27.7056C121.627 27.7928 121.671 27.8733 121.731 27.9417C121.79 28.0101 121.864 28.0647 121.947 28.1018C122.03 28.139 122.12 28.1577 122.211 28.1567H125.477C125.727 28.1573 125.968 28.0692 126.159 27.9081C126.349 27.7469 126.476 27.5233 126.517 27.2772L128.482 15.0207C128.495 14.9309 128.488 14.8392 128.463 14.7521C128.437 14.665 128.393 14.5845 128.333 14.5161C128.274 14.4477 128.2 14.3931 128.117 14.3559C128.034 14.3188 127.944 14.3001 127.853 14.3011H127.933ZM122.873 21.2689C122.728 22.2412 122.232 23.1268 121.479 23.7582C120.725 24.3896 119.767 24.7231 118.784 24.6957C118.331 24.7231 117.878 24.6515 117.456 24.4858C117.033 24.32 116.653 24.0642 116.339 23.7362C116.068 23.3838 115.877 22.9761 115.78 22.5419C115.683 22.1076 115.683 21.6575 115.78 21.2232C115.929 20.2569 116.423 19.3773 117.17 18.7473C117.918 18.1173 118.869 17.7794 119.846 17.7964C120.297 17.7543 120.752 17.8207 121.173 17.99C121.593 18.1594 121.967 18.4267 122.263 18.7698C122.559 19.1129 122.769 19.5219 122.875 19.9625C122.981 20.4032 122.981 20.8628 122.873 21.3031V21.2689Z" fill="white"/>
<path d="M132.16 7.9044L129.076 27.4143C129.062 27.5041 129.069 27.5957 129.094 27.6828C129.12 27.7699 129.164 27.8505 129.224 27.9189C129.284 27.9872 129.357 28.0419 129.44 28.079C129.523 28.1161 129.613 28.1349 129.704 28.1339H132.822C133.072 28.1345 133.313 28.0464 133.504 27.8852C133.694 27.7241 133.821 27.5005 133.862 27.2544L136.934 8.07574C136.948 7.98591 136.941 7.89429 136.916 7.80718C136.89 7.72007 136.846 7.63955 136.786 7.57115C136.726 7.50276 136.652 7.44812 136.57 7.41099C136.487 7.37387 136.397 7.35515 136.306 7.35611H132.811C132.662 7.35855 132.518 7.41205 132.404 7.50768C132.289 7.60332 132.211 7.73529 132.182 7.88156L132.16 7.9044Z" fill="white"/>
<path d="M8.05279 31.8806L8.62392 28.2482H7.33316H1.14209L5.45985 1.41641C5.47424 1.33388 5.5142 1.25797 5.57407 1.19938C5.64328 1.15908 5.7225 1.13927 5.80253 1.14226H16.1971C19.6239 1.14226 22.0341 1.85047 23.2677 3.25545C23.8182 3.84512 24.211 4.56406 24.41 5.34579C24.5944 6.30028 24.5944 7.28123 24.41 8.23572V9.05815L24.9926 9.38941C25.4263 9.61143 25.8139 9.91377 26.1348 10.2804C26.6531 10.8766 26.9866 11.6109 27.0943 12.3936C27.2316 13.4178 27.1852 14.4583 26.9573 15.4663C26.7369 16.6915 26.3081 17.8699 25.6893 18.9502C25.1733 19.8124 24.485 20.559 23.6675 21.1433C22.8373 21.707 21.9127 22.1171 20.9375 22.3541C19.8155 22.6234 18.6646 22.7539 17.5107 22.7425H16.6997C16.1242 22.7459 15.5675 22.9476 15.1234 23.3136C14.6846 23.6832 14.3928 24.1979 14.301 24.7643L14.2781 25.1298L13.2615 31.5265V31.7664C13.26 31.7927 13.2531 31.8184 13.2413 31.8419C13.2296 31.8655 13.2131 31.8864 13.193 31.9034C13.1596 31.9147 13.1235 31.9147 13.0902 31.9034L8.05279 31.8806Z" fill="white"/>
<path d="M25.5294 8.38435C25.5053 8.58775 25.471 8.7898 25.4266 8.98975C24.0559 15.9918 19.4183 18.3335 13.3757 18.3335H10.3373C9.98473 18.3288 9.64215 18.4507 9.37178 18.677C9.10141 18.9034 8.92117 19.2192 8.8638 19.5671L7.31032 29.3449L6.85342 32.1092C6.83703 32.2194 6.84454 32.3318 6.87544 32.4388C6.90634 32.5459 6.95991 32.645 7.0325 32.7295C7.10509 32.814 7.19501 32.8819 7.29616 32.9286C7.39731 32.9753 7.50733 32.9997 7.61873 33.0001H13.0331C13.3413 33.0037 13.6404 32.8959 13.8754 32.6965C14.1105 32.4971 14.2656 32.2196 14.3124 31.915L14.3695 31.6523L15.3861 25.267L15.4547 24.9243C15.5037 24.6207 15.6595 24.3445 15.894 24.1456C16.1286 23.9466 16.4264 23.838 16.734 23.8392H17.545C22.788 23.8392 26.8887 21.7374 28.0881 15.6606C28.5907 13.1247 28.328 11.0001 26.9458 9.51519C26.5254 9.0463 26.0219 8.65906 25.4609 8.37292L25.5294 8.38435Z" fill="#D5D5D5"/>
<path d="M24.1016 7.82452C23.896 7.75598 23.6789 7.71029 23.4505 7.65318L22.7651 7.52753C21.8765 7.3954 20.9792 7.33048 20.0808 7.33334H11.9365C11.6198 7.33615 11.3147 7.45328 11.0776 7.66318C10.8404 7.87307 10.687 8.16159 10.6457 8.47561L8.9209 19.2586V19.567C8.97827 19.2191 9.15851 18.9033 9.42888 18.6769C9.69925 18.4505 10.0418 18.3286 10.3944 18.3333H13.4328C19.4297 18.3333 24.113 15.9346 25.4837 8.98962C25.5281 8.78968 25.5624 8.58762 25.5865 8.38423C25.219 8.19761 24.837 8.04099 24.4443 7.9159L24.1359 7.82452H24.1016Z" fill="#898989"/>
<path d="M10.6458 8.41851C10.6871 8.10449 10.8404 7.81597 11.0776 7.60608C11.3148 7.39618 11.6198 7.27905 11.9365 7.27624H20.0809C20.9792 7.27339 21.8766 7.3383 22.7652 7.47043L23.4505 7.59608C23.679 7.59608 23.896 7.69888 24.1016 7.76742L24.41 7.8588C24.8018 7.98659 25.1836 8.14312 25.5523 8.32713C25.8119 7.30347 25.8186 6.23202 25.5719 5.20519C25.3251 4.17836 24.8323 3.22696 24.1359 2.43304C22.571 0.742494 19.7839 2.30012e-05 16.1972 2.30012e-05H5.80256C5.45193 -0.00193526 5.11209 0.121205 4.8441 0.347321C4.57612 0.573437 4.39754 0.887707 4.34047 1.23367L-0.000134968 28.3167C-0.0199082 28.4437 -0.0119716 28.5735 0.0231301 28.6971C0.0582317 28.8208 0.119667 28.9354 0.203221 29.033C0.286775 29.1307 0.390469 29.2091 0.507187 29.2629C0.623904 29.3167 0.750883 29.3447 0.879408 29.3448H7.31035L8.92095 19.2586L10.6458 8.41851Z" fill="white"/>
</g>
<defs>
<clipPath id="clip0_115_913">
<rect width="136.923" height="33" fill="white"/>
</clipPath>
</defs>
</svg>
