<svg width="152" height="37" viewBox="0 0 152 37" fill="none" xmlns="http://www.w3.org/2000/svg">
<path d="M56.6487 8.1691H48.2689C47.9929 8.16841 47.7256 8.26598 47.5149 8.44438C47.3042 8.62277 47.1638 8.87034 47.1188 9.14282L43.7188 30.3497C43.7042 30.4492 43.7113 30.5506 43.7396 30.6471C43.768 30.7435 43.8168 30.8326 43.8829 30.9084C43.949 30.9841 44.0307 31.0446 44.1223 31.0857C44.214 31.1268 44.3135 31.1475 44.414 31.1464H48.4206C48.6966 31.1471 48.9639 31.0495 49.1746 30.8712C49.3853 30.6928 49.5258 30.4452 49.5708 30.1727L50.4808 24.4442C50.5258 24.1717 50.6662 23.9241 50.8769 23.7457C51.0876 23.5673 51.3549 23.4698 51.6309 23.4705H54.3484C59.8675 23.4705 63.0483 20.8486 63.8909 15.6048C64.1224 14.6895 64.146 13.734 63.9601 12.8083C63.7742 11.8827 63.3835 11.0104 62.8166 10.2556C61.5653 8.85197 59.404 8.1691 56.6487 8.1691ZM57.6219 15.9209C57.1543 18.8927 54.8539 18.8927 52.6421 18.8927H51.3782L52.2755 13.3539C52.2997 13.1896 52.3817 13.0394 52.5069 12.9304C52.6321 12.8214 52.7921 12.7608 52.9581 12.7595H53.5395C55.0562 12.7595 56.4844 12.7595 57.2175 13.6194C57.4538 13.9478 57.6139 14.3248 57.686 14.723C57.7582 15.1212 57.7406 15.5304 57.6345 15.9209H57.6219Z" fill="#253B80"/>
<path d="M81.7117 15.8324H77.6925C77.5277 15.8306 77.3678 15.8885 77.2424 15.9954C77.1169 16.1024 77.0344 16.2511 77.01 16.4141L76.8204 17.527L76.5423 17.1223C75.6702 15.8577 73.7364 15.4531 71.8026 15.4531C69.6012 15.4884 67.4857 16.3133 65.841 17.7778C64.1963 19.2423 63.1319 21.249 62.8415 23.4325C62.6327 24.4959 62.658 25.592 62.9156 26.6447C63.1731 27.6973 63.6568 28.6811 64.3329 29.5278C64.9727 30.2185 65.7587 30.7574 66.6334 31.1053C67.5081 31.4532 68.4494 31.6012 69.3886 31.5385C70.4195 31.551 71.4426 31.3572 72.3976 30.9685C73.3527 30.5798 74.2204 30.004 74.9498 29.2749L74.7728 30.375C74.7562 30.4738 74.7614 30.5749 74.7881 30.6714C74.8149 30.7679 74.8625 30.8573 74.9276 30.9333C74.9927 31.0093 75.0738 31.0701 75.165 31.1113C75.2562 31.1525 75.3553 31.1731 75.4554 31.1717H79.0702C79.3462 31.1724 79.6135 31.0748 79.8242 30.8965C80.0349 30.7181 80.1753 30.4705 80.2203 30.198L82.3943 16.6291C82.4109 16.5304 82.4057 16.4292 82.379 16.3327C82.3522 16.2363 82.3046 16.1468 82.2395 16.0708C82.1744 15.9948 82.0933 15.9341 82.0021 15.8929C81.9109 15.8517 81.8118 15.831 81.7117 15.8324ZM76.1126 23.5463C75.9497 24.6216 75.4001 25.6005 74.567 26.299C73.7338 26.9976 72.6744 27.3677 71.5878 27.3401C71.0868 27.3713 70.585 27.2924 70.1177 27.1089C69.6504 26.9254 69.229 26.6417 68.883 26.2778C68.5811 25.8884 68.3681 25.4375 68.2589 24.9569C68.1497 24.4762 68.147 23.9775 68.251 23.4958C68.4184 22.4271 68.9658 21.4549 69.7925 20.7579C70.6192 20.0609 71.6696 19.6859 72.7506 19.702C73.2502 19.6562 73.7536 19.73 74.2191 19.9175C74.6845 20.105 75.0987 20.4006 75.4272 20.78C75.7558 21.1594 75.9893 21.6117 76.1085 22.0993C76.2277 22.587 76.2291 23.096 76.1126 23.5843V23.5463Z" fill="#253B80"/>
<path d="M103.085 15.8326H99.053C98.8641 15.8334 98.6781 15.8799 98.5109 15.9679C98.3437 16.056 98.2001 16.183 98.0925 16.3384L92.5312 24.4317L90.1677 16.6545C90.0946 16.4165 89.9472 16.2081 89.747 16.0602C89.5467 15.9122 89.3044 15.8324 89.0554 15.8326H85.0867C84.9763 15.8312 84.8671 15.8561 84.7682 15.9054C84.6693 15.9546 84.5836 16.0267 84.5181 16.1157C84.4527 16.2047 84.4093 16.308 84.3917 16.4171C84.3741 16.5262 84.3827 16.638 84.4169 16.7431L88.8659 29.6164L84.6823 35.4082C84.6065 35.5112 84.5611 35.6335 84.5513 35.761C84.5416 35.8886 84.5678 36.0164 84.6271 36.1297C84.6864 36.2431 84.7763 36.3375 84.8867 36.4022C84.997 36.4669 85.1232 36.4993 85.2511 36.4957H89.2703C89.4587 36.4996 89.6451 36.4565 89.8128 36.3704C89.9805 36.2843 90.1241 36.1579 90.2309 36.0025L103.641 16.9201C103.713 16.8151 103.754 16.6924 103.761 16.5655C103.768 16.4385 103.74 16.3121 103.68 16.2C103.62 16.0879 103.53 15.9944 103.421 15.9296C103.312 15.8648 103.187 15.8313 103.06 15.8326H103.085Z" fill="#253B80"/>
<path d="M116.444 8.1691H108.065C107.789 8.16841 107.521 8.26598 107.311 8.44438C107.1 8.62277 106.959 8.87034 106.914 9.14282L103.527 30.3497C103.51 30.4485 103.516 30.5496 103.542 30.6461C103.569 30.7426 103.617 30.832 103.682 30.908C103.747 30.984 103.828 31.0448 103.919 31.086C104.01 31.1272 104.11 31.1478 104.21 31.1464H108.52C108.712 31.1458 108.897 31.0767 109.043 30.9516C109.189 30.8265 109.286 30.6535 109.316 30.4636L110.276 24.4442C110.321 24.1717 110.462 23.9241 110.673 23.7457C110.883 23.5673 111.151 23.4698 111.427 23.4705H114.081C119.6 23.4705 122.781 20.8486 123.623 15.6048C123.858 14.697 123.888 13.7483 123.711 12.8275C123.534 11.9067 123.154 11.0369 122.6 10.2809C121.336 8.85197 119.25 8.1691 116.444 8.1691ZM117.418 15.9209C116.963 18.8927 114.662 18.8927 112.438 18.8927H111.224L112.109 13.3539C112.134 13.1874 112.217 13.0355 112.345 12.9262C112.473 12.817 112.636 12.7577 112.804 12.7595H113.386C114.89 12.7595 116.318 12.7595 117.064 13.6194C117.295 13.9504 117.451 14.3278 117.52 14.7254C117.59 15.123 117.572 15.531 117.468 15.9209H117.418Z" fill="#179BD7"/>
<path d="M141.558 15.8324H137.539C137.374 15.8306 137.214 15.8885 137.089 15.9954C136.963 16.1024 136.881 16.2511 136.856 16.4141L136.68 17.527L136.401 17.1223C135.529 15.8577 133.596 15.4531 131.662 15.4531C129.444 15.4695 127.307 16.2854 125.643 17.7511C123.978 19.2168 122.898 21.234 122.599 23.4325C122.39 24.4968 122.416 25.594 122.676 26.6471C122.936 27.7002 123.423 28.6835 124.104 29.5278C124.743 30.2185 125.529 30.7574 126.404 31.1053C127.279 31.4532 128.22 31.6012 129.159 31.5385C130.188 31.5515 131.21 31.3578 132.163 30.969C133.116 30.5802 133.981 30.0042 134.708 29.2749L134.531 30.375C134.516 30.4745 134.523 30.5759 134.552 30.6724C134.58 30.7688 134.629 30.8579 134.695 30.9337C134.761 31.0094 134.843 31.0699 134.934 31.111C135.026 31.1521 135.126 31.1728 135.226 31.1717H138.841C139.117 31.1724 139.384 31.0748 139.595 30.8965C139.806 30.7181 139.946 30.4705 139.991 30.198L142.165 16.6291C142.18 16.5297 142.172 16.4282 142.144 16.3318C142.116 16.2354 142.067 16.1462 142.001 16.0705C141.935 15.9948 141.853 15.9343 141.761 15.8932C141.67 15.8521 141.57 15.8314 141.47 15.8324H141.558ZM135.959 23.5463C135.799 24.6228 135.25 25.6032 134.416 26.3023C133.582 27.0013 132.522 27.3705 131.434 27.3401C130.933 27.3705 130.432 27.2912 129.965 27.1077C129.498 26.9242 129.076 26.641 128.729 26.2778C128.429 25.8877 128.218 25.4364 128.111 24.9557C128.004 24.4749 128.004 23.9766 128.11 23.4958C128.275 22.426 128.822 21.4523 129.649 20.7548C130.476 20.0573 131.528 19.6833 132.61 19.702C133.109 19.6555 133.612 19.729 134.078 19.9164C134.543 20.1039 134.956 20.3999 135.284 20.7797C135.612 21.1596 135.844 21.6123 135.961 22.1001C136.079 22.588 136.078 23.0968 135.959 23.5843V23.5463Z" fill="#179BD7"/>
<path d="M146.235 8.75083L142.823 30.3498C142.808 30.4492 142.815 30.5506 142.844 30.6471C142.872 30.7435 142.921 30.8327 142.987 30.9084C143.053 30.9841 143.135 31.0446 143.226 31.0857C143.318 31.1268 143.418 31.1475 143.518 31.1465H146.968C147.245 31.1471 147.512 31.0496 147.723 30.8712C147.933 30.6928 148.074 30.4452 148.119 30.1727L151.519 8.94052C151.533 8.84108 151.526 8.73964 151.498 8.64321C151.469 8.54677 151.421 8.45762 151.354 8.3819C151.288 8.30618 151.207 8.24569 151.115 8.20459C151.023 8.1635 150.924 8.14277 150.823 8.14384H146.956C146.791 8.14653 146.632 8.20576 146.505 8.31164C146.379 8.41751 146.292 8.56361 146.261 8.72554L146.235 8.75083Z" fill="#179BD7"/>
<path d="M8.91037 35.2943L9.54233 31.273H8.1141H1.26367L6.04128 1.56811C6.05721 1.47675 6.10142 1.3927 6.16767 1.32784C6.24424 1.28323 6.3319 1.2613 6.42045 1.26461H17.9221C21.7138 1.26461 24.3807 2.04864 25.7457 3.60407C26.3548 4.25688 26.7895 5.05281 27.0097 5.91824C27.2137 6.97494 27.2137 8.06093 27.0097 9.11762V10.0281L27.6542 10.3948C28.1341 10.6406 28.563 10.9754 28.9182 11.3812C29.4917 12.0413 29.8606 12.8542 29.9799 13.7207C30.1318 14.8546 30.0804 16.0065 29.8282 17.1224C29.5844 18.4788 29.1099 19.7834 28.4252 20.9793C27.8542 21.9339 27.0927 22.7604 26.1881 23.4073C25.2695 24.0314 24.2463 24.4854 23.1673 24.7478C21.9258 25.0459 20.6523 25.1903 19.3756 25.1777H18.4782C17.8414 25.1815 17.2254 25.4048 16.734 25.81C16.2485 26.2192 15.9256 26.789 15.824 27.416L15.7987 27.8207L14.6738 34.9023V35.1679C14.6721 35.197 14.6645 35.2254 14.6515 35.2515C14.6385 35.2776 14.6203 35.3008 14.598 35.3196C14.5611 35.3321 14.5211 35.3321 14.4842 35.3196L8.91037 35.2943Z" fill="#253B80"/>
<path d="M28.2481 9.28209C28.2215 9.50726 28.1835 9.73095 28.1344 9.95231C26.6177 17.7042 21.4862 20.2965 14.8 20.2965H11.438C11.0479 20.2913 10.6688 20.4263 10.3696 20.6769C10.0705 20.9275 9.87105 21.2771 9.80757 21.6623L8.08864 32.487L7.58308 35.5473C7.56495 35.6693 7.57326 35.7938 7.60745 35.9123C7.64164 36.0308 7.70091 36.1405 7.78123 36.2341C7.86155 36.3276 7.96105 36.4028 8.07298 36.4545C8.1849 36.5062 8.30663 36.5332 8.4299 36.5337H14.4209C14.7619 36.5376 15.0929 36.4183 15.3529 36.1975C15.613 35.9768 15.7847 35.6696 15.8365 35.3323L15.8996 35.0415L17.0245 27.9725L17.1004 27.5931C17.1546 27.257 17.327 26.9512 17.5865 26.731C17.846 26.5107 18.1756 26.3904 18.516 26.3918H19.4133C25.2147 26.3918 29.7522 24.065 31.0793 17.3374C31.6354 14.5301 31.3447 12.178 29.8154 10.534C29.3501 10.0149 28.7931 9.58621 28.1723 9.26944L28.2481 9.28209Z" fill="#179BD7"/>
<path d="M26.6685 8.66234C26.441 8.58646 26.2009 8.53588 25.9481 8.47265L25.1898 8.33355C24.2065 8.18727 23.2136 8.11541 22.2196 8.11857H13.2078C12.8574 8.12167 12.5199 8.25135 12.2574 8.48372C11.995 8.71609 11.8253 9.03551 11.7796 9.38314L9.87109 21.3207V21.6622C9.93458 21.277 10.134 20.9274 10.4332 20.6768C10.7323 20.4262 11.1114 20.2912 11.5015 20.2964H14.8636C21.4991 20.2964 26.6812 17.6408 28.1979 9.9522C28.247 9.73085 28.285 9.50716 28.3116 9.28198C27.905 9.07538 27.4823 8.90199 27.0477 8.7635L26.7065 8.66234H26.6685Z" fill="#222D65"/>
<path d="M11.7797 9.31994C11.8254 8.9723 11.9951 8.65289 12.2576 8.42052C12.52 8.18815 12.8575 8.05847 13.2079 8.05537H22.2197C23.2137 8.0522 24.2066 8.12407 25.1899 8.27034L25.9482 8.40945C26.201 8.40945 26.4412 8.52326 26.6687 8.59913L27.0099 8.7003C27.4434 8.84177 27.8659 9.01507 28.2738 9.21878C28.5611 8.08551 28.5685 6.89933 28.2955 5.76255C28.0225 4.62577 27.4771 3.5725 26.7066 2.69357C24.975 0.821999 21.8911 2.54641e-05 17.9224 2.54641e-05H6.42071C6.03274 -0.00214248 5.65671 0.134184 5.36018 0.384512C5.06365 0.63484 4.86605 0.982761 4.8029 1.36577L1.81533e-05 31.3488C-0.0218609 31.4894 -0.0130791 31.6331 0.0257609 31.77C0.064601 31.9068 0.13258 32.0337 0.225032 32.1418C0.317485 32.2499 0.432222 32.3368 0.56137 32.3963C0.690519 32.4559 0.83102 32.4868 0.973234 32.487H8.08908L9.87121 21.3208L11.7797 9.31994Z" fill="#253B80"/>
</svg>
