<svg width="96" height="33" viewBox="0 0 96 33" fill="none" xmlns="http://www.w3.org/2000/svg">
<g opacity="0.5" clip-path="url(#clip0_115_890)">
<path d="M68.955 7.93151C69.7345 7.93151 70.4964 7.69892 71.1444 7.26316C71.7925 6.8274 72.2976 6.20803 72.5959 5.48338C72.8942 4.75874 72.9722 3.96136 72.8202 3.19208C72.6681 2.42279 72.2928 1.71616 71.7416 1.16154C71.1905 0.606924 70.4883 0.229222 69.7238 0.0762026C68.9594 -0.0768169 68.167 0.0017183 67.4469 0.301877C66.7268 0.602035 66.1113 1.11034 65.6783 1.7625C65.2453 2.41467 65.0141 3.1814 65.0141 3.96576C65.0141 5.01754 65.4293 6.02624 66.1684 6.76997C66.9075 7.51369 67.9098 7.93151 68.955 7.93151ZM38.7961 10.0685C37.7151 12.9211 36.1769 15.5761 34.2427 17.9281V1.80822L25.9832 3.44178V32.661H34.2223V23.6301C35.8637 26.4373 37.0623 29.4839 37.7752 32.661H47.6478C46.6779 28.5514 42.4001 21.0411 42.4001 21.0411C44.948 17.7462 46.9131 14.0345 48.2093 10.0685H38.7961ZM60.4811 9.76028C53.0894 9.99658 49.3221 13.3562 49.3221 19.9623V32.661H57.3774V22.3048C57.3774 18.339 57.8981 16.6336 62.5741 16.4795V9.87329C61.8747 9.76948 61.1671 9.73165 60.4607 9.76028H60.4811ZM12.1493 13.2843C11.1284 13.2226 8.8006 13.0685 8.8006 10.9521C8.8006 8.39384 12.1697 8.39384 13.4255 8.39384C15.8527 8.50369 18.2552 8.93197 20.5722 9.66781C20.5722 9.66781 21.7156 10.0788 22.6855 10.4897H22.7774V3.5137H22.6549C19.3237 2.29485 15.7948 1.71633 12.2514 1.80822C3.19558 1.80822 0 7.08904 0 11.6096C0 14.2192 1.11284 20.3527 11.4244 21.0616C12.3025 21.113 14.62 21.2466 14.62 23.4452C14.62 25.2432 12.721 26.3116 9.51526 26.3116C6.44626 26.2862 3.40796 25.6942 0.551313 24.5651V31.7569C4.04342 32.6299 7.63252 33.0477 11.2305 33C20.0311 33 23.9821 27.9966 23.9821 23.0445C23.9821 17.4349 19.5614 13.7979 12.1595 13.2843H12.1493ZM64.9631 32.661H72.9571V10.0582H64.9631V32.661ZM88.006 3.24658V32.661H95.9694V1.83904L88.006 3.24658ZM76.3365 3.24658L84.3203 1.80822V32.6301H76.3365V3.24658Z" fill="white"/>
</g>
<defs>
<clipPath id="clip0_115_890">
<rect width="96" height="33" fill="white"/>
</clipPath>
</defs>
</svg>
