<svg width="33" height="33" viewBox="0 0 33 33" fill="none" xmlns="http://www.w3.org/2000/svg">
<g opacity="0.5" clip-path="url(#clip0_115_933)">
<path d="M30.6019 22.6777C32.7956 15.8699 28.8883 7.07364 21.1945 1.61704C20.9717 1.45926 20.6672 1.48117 20.4705 1.67202C20.2733 1.86203 20.2399 2.16515 20.3899 2.39377C23.7154 7.45056 24.57 12.5738 22.7825 16.5668C17.4545 12.9683 7.81817 4.56803 7.71762 4.4805C7.50428 4.29326 7.1842 4.29326 6.96977 4.4805C6.75527 4.66748 6.71196 4.98388 6.86813 5.22171C7.01817 5.44955 9.71077 9.53427 12.6101 13.0858C10.5198 11.5928 8.21275 9.70288 4.1094 6.2721C3.89606 6.09318 3.5843 6.09595 3.37316 6.27739C3.16201 6.45908 3.11367 6.76691 3.25869 7.00474C7.32368 13.6768 14.0896 19.864 17.4245 22.7006C9.7379 26.1444 0.972213 20.4774 0.881656 20.418C0.654974 20.2696 0.357136 20.3002 0.166548 20.4908C-0.0240394 20.6814 -0.0545902 20.9803 0.0932008 21.2059C1.76956 23.7551 4.07376 25.6499 7.01753 27.7107C10.9358 30.4544 14.8353 31.4879 18.1557 31.4879C21.5879 31.4879 24.4011 30.3833 25.9751 28.9204C25.9818 28.912 26.6869 28.1842 28.2488 28.6414C29.4939 29.0054 31.2092 30.3761 31.8093 30.995C31.9537 31.1439 32.1699 31.2028 32.3699 31.1473C32.5705 31.0911 32.725 30.93 32.7722 30.7272C32.9233 30.0744 33 29.4009 33 28.7264C33 26.4544 32.151 24.3202 30.6019 22.6777Z" fill="white"/>
<path d="M31.8255 29.4792C30.9587 28.7635 29.6774 27.8734 28.5678 27.5489C26.298 26.8872 25.1735 28.1095 25.1635 28.1245C22.3842 30.7044 15.1187 31.994 7.66992 26.7783C5.73465 25.4236 4.09 24.1484 2.73926 22.7133C3.69884 23.1628 4.89509 23.6523 6.25305 24.0612C10.9026 25.4603 15.2149 25.2075 18.7265 23.3283C18.8931 23.2389 19.0048 23.0727 19.0243 22.8844C19.0432 22.696 18.9677 22.5104 18.8221 22.3893C16.3345 20.3179 10.7532 15.4075 6.4981 9.73897C10.6415 13.1561 12.5684 14.5716 15.6249 16.4057C15.8727 16.5544 16.1922 16.4938 16.3689 16.2649C16.5451 16.0357 16.5211 15.7112 16.3144 15.5098C14.3575 13.6087 12.0455 10.5919 10.328 8.21124C13.8485 11.1839 19.3281 15.6909 22.7003 17.877C22.8343 17.9642 23.0004 17.9898 23.1538 17.9504C23.3082 17.9098 23.4388 17.8059 23.5133 17.6648C25.4908 13.9068 25.2308 9.18526 22.8565 4.39819C28.7034 9.64616 31.4349 16.9586 29.4146 22.636C29.3402 22.8449 29.394 23.0777 29.553 23.2333C31.0421 24.6913 31.8622 26.6421 31.8622 28.7263C31.8621 28.978 31.8499 29.2292 31.8255 29.4792Z" fill="white"/>
</g>
<defs>
<clipPath id="clip0_115_933">
<rect width="33" height="33" fill="white"/>
</clipPath>
</defs>
</svg>
