<svg id="Слой_1" data-name="Слой 1" xmlns="http://www.w3.org/2000/svg" viewBox="0 0 60.65 52.77"><defs><style>.cls-1{fill:#50af95;}.cls-1,.cls-2{fill-rule:evenodd;}.cls-2,.cls-4{fill:#fff;}.cls-3{fill:#ff312d;}</style></defs><title>Монтажная область 3</title><path class="cls-1" d="M11.11.26.05,23.49A.46.46,0,0,0,.14,24L30,52.64a.45.45,0,0,0,.63,0L60.51,24a.44.44,0,0,0,.1-.53L49.55.26A.44.44,0,0,0,49.14,0H11.52a.44.44,0,0,0-.41.26Z"/><path class="cls-2" d="M34.17,25.88c-.22,0-1.33.08-3.8.08-2,0-3.36-.06-3.85-.08-7.6-.34-13.27-1.66-13.27-3.24s5.67-2.91,13.27-3.25v5.17c.5,0,1.92.12,3.89.12,2.35,0,3.54-.1,3.75-.12V19.4c7.58.33,13.24,1.66,13.24,3.24s-5.66,2.9-13.24,3.23Zm0-7V14.24H44.74v-7H15.94v7.05H26.52v4.62c-8.6.4-15.06,2.1-15.06,4.14s6.46,3.74,15.06,4.14V42h7.64V27.13c8.58-.39,15-2.09,15-4.13s-6.45-3.74-15-4.14Z"/><circle class="cls-3" cx="45.48" cy="41.11" r="11.34"/><g id="tron"><path class="cls-4" d="M52.9,39.24c-.68-.63-1.61-1.58-2.37-2.26l-.05,0a.77.77,0,0,0-.25-.14h0c-1.84-.34-10.4-1.94-10.57-1.92a.24.24,0,0,0-.13,0l0,0a.76.76,0,0,0-.12.19v.22c1,2.68,4.77,11.47,5.52,13.53,0,.14.13.41.29.42h0c.08,0,.45-.48.45-.48s6.53-7.93,7.19-8.77a1.78,1.78,0,0,0,.23-.33A.55.55,0,0,0,52.9,39.24Zm-5.56.92,2.78-2.31,1.64,1.51ZM46.25,40l-4.8-3.93,7.77,1.43Zm.44,1,4.91-.79L46,47ZM40.8,36.47l5.05,4.29L45.12,47Z"/></g></svg>