<svg id="Слой_1" data-name="Слой 1" xmlns="http://www.w3.org/2000/svg" viewBox="0 0 60.65 52.77"><defs><style>.cls-1{fill:#50af95;}.cls-1,.cls-2{fill-rule:evenodd;}.cls-2,.cls-4{fill:#fff;}.cls-3{fill:#f3ba2c;}</style></defs><title>Монтажная область 2</title><path class="cls-1" d="M11.11.26.05,23.49A.46.46,0,0,0,.14,24L30,52.64a.45.45,0,0,0,.63,0L60.51,24a.44.44,0,0,0,.1-.53L49.55.26A.44.44,0,0,0,49.14,0H11.52a.44.44,0,0,0-.41.26Z"/><path class="cls-2" d="M34.17,25.88c-.22,0-1.33.08-3.8.08-2,0-3.36-.06-3.85-.08-7.6-.34-13.27-1.66-13.27-3.24s5.67-2.91,13.27-3.25v5.17c.5,0,1.92.12,3.89.12,2.35,0,3.54-.1,3.75-.12V19.4c7.58.33,13.24,1.66,13.24,3.24s-5.66,2.9-13.24,3.23Zm0-7V14.24H44.74v-7H15.94v7.05H26.52v4.62c-8.6.4-15.06,2.1-15.06,4.14s6.46,3.74,15.06,4.14V42h7.64V27.13c8.58-.39,15-2.09,15-4.13s-6.45-3.74-15-4.14Z"/><g id="Logo"><circle id="Ellipse" class="cls-3" cx="45.48" cy="40.83" r="11.34"/><g id="Triangles"><polygon class="cls-4" points="50.34 43.88 50.34 43.88 45.48 48.74 40.61 43.88 40.61 43.88 42.4 42.09 42.4 42.09 45.48 45.17 48.55 42.09 50.34 43.88"/><polygon class="cls-4" points="50.34 37.78 48.55 39.57 45.48 36.49 42.4 39.57 40.61 37.78 45.48 32.91 50.34 37.78"/></g><g id="Rectangles"><rect class="cls-4" x="50.34" y="39.57" width="2.53" height="2.53" transform="translate(-13.76 48.45) rotate(-45)"/><rect class="cls-4" x="38.09" y="39.56" width="2.53" height="2.53" transform="translate(-17.35 39.78) rotate(-45)"/><path class="cls-4" d="M47.29,40.83h0L45.48,39l-1.35,1.34h0l-.15.16-.32.32h0l1.82,1.81,1.81-1.81h0"/></g></g></svg>