<svg width="109" height="34" viewBox="0 0 109 34" fill="none" xmlns="http://www.w3.org/2000/svg">
<path d="M17.56 2.89003C17.05 0.890029 15.56 0.350029 13.73 0.280029H0.11L0 0.920029C10.6 3.49003 17.61 9.69003 20.53 17.14L17.53 2.89003H17.56Z" fill="white"/>
<path d="M43.28 0.550049L37.79 32.7901H46.57L52.07 0.550049H43.28Z" fill="white"/>
<path d="M30.42 0.589956L21.82 22.59L20.9 19.28C19.2 15.28 14.38 9.52996 8.72998 5.90996L16.6 32.78H25.89L39.73 0.579956L30.42 0.589956Z" fill="white"/>
<path d="M69.88 6.72996C72.1343 6.6935 74.3716 7.12598 76.45 7.99996L77.25 8.36996L78.44 1.36996C75.9146 0.452344 73.2469 -0.0114634 70.56 -3.80928e-05C61.88 -3.80928e-05 55.76 4.36996 55.72 10.64C55.66 15.27 60.07 17.85 63.41 19.4C66.75 20.95 68 22 68 23.4C68 25.56 65.27 26.54 62.74 26.54C59.8905 26.6268 57.0597 26.0517 54.47 24.86L53.34 24.34L52.1 31.56C55.2346 32.7115 58.5506 33.2907 61.89 33.27C71.13 33.27 77.13 28.95 77.19 22.27C77.19 18.61 74.89 15.81 69.81 13.52C66.73 12.02 64.81 11.03 64.87 9.51996C64.87 8.17996 66.47 6.73996 69.87 6.73996L69.88 6.72996Z" fill="white"/>
<path d="M90.15 21.37L93.65 12.37C93.6 12.46 94.36 10.5 94.82 9.28997L95.41 12.07C95.41 12.07 97.09 19.77 97.41 21.38L90.15 21.37ZM101 0.589966H94.19C92.09 0.589966 90.52 1.15997 89.59 3.25997L76.59 32.81H85.81C85.81 32.81 87.32 28.81 87.66 27.96H98.91C99.17 29.08 99.98 32.79 99.98 32.79H108.13L101 0.589966Z" fill="white"/>
</svg>
