<svg width="126" height="33" viewBox="0 0 126 33" fill="none" xmlns="http://www.w3.org/2000/svg">
<g opacity="0.5" clip-path="url(#clip0_115_861)">
<path d="M115.932 18.9876L118.886 16.3348L121.553 19.2738L118.599 21.9376L115.932 18.9876Z" fill="white"/>
<path d="M109.062 22.2569L113.001 18.7235L116.552 22.6421L112.602 26.1755L109.062 22.2569Z" fill="white"/>
<path d="M122.25 17.1605L124.219 15.3883L126 17.3476L124.031 19.1198L122.25 17.1605Z" fill="white"/>
<path d="M110.677 6.8576L113.631 4.20483L116.297 7.14379L113.343 9.79656L110.677 6.8576Z" fill="white"/>
<path d="M119.738 11.3045L121.696 9.54333L123.478 11.5026L121.508 13.2638L119.738 11.3045Z" fill="white"/>
<path d="M13.2207 9.7085L11.2846 19.6701H11.1518L8.51875 9.7085H6.83712L4.37001 19.6701H4.23725L2.12415 9.7085H0L3.06454 23.0604H5.11125L7.61156 13.6601H7.74431L10.311 23.0604H12.3577L15.4333 9.7085H13.2207Z" fill="white"/>
<path d="M106.252 15.4543L110.202 11.9209L113.753 15.8395L109.803 19.3839L106.252 15.4543Z" fill="white"/>
<path d="M103.431 8.76187L107.381 5.22852L110.932 9.15814L106.982 12.6915L103.431 8.76187Z" fill="white"/>
<path d="M113.399 12.7795L116.353 10.1267L119.019 13.0657L116.076 15.7184L113.399 12.7795Z" fill="white"/>
<path d="M117.194 5.48163L119.163 3.72046L120.944 5.67976L118.975 7.44094L117.194 5.48163Z" fill="white"/>
<path d="M86.7695 13.7371L84.5569 20.6718H84.4462L82.0234 13.7371H79.9988L83.6275 23.1154C83.1739 24.5023 82.3885 25.526 81.0941 25.526V27.056C83.3067 27.056 84.413 25.7021 85.3755 23.1044L88.7941 13.6931L86.7695 13.7371Z" fill="white"/>
<path d="M17.9669 17.4467C18.1771 15.5644 19.0732 14.6728 20.1796 14.6728C21.2859 14.6728 22.171 15.4653 22.2595 17.4467H17.9669ZM24.096 18.019C24.096 14.937 22.6467 13.418 20.2791 13.418C17.4359 13.418 15.9866 15.4873 15.9866 18.3493C15.9866 21.2112 17.292 23.2916 20.4672 23.2916C21.632 23.2928 22.7767 22.9891 23.7862 22.411V20.991C22.8929 21.587 21.8516 21.926 20.777 21.9707C18.8298 21.9707 17.9005 20.969 17.9005 18.6685H24.0628V17.975L24.096 18.019Z" fill="white"/>
<path d="M118.532 24.9316L121.486 22.2788L124.163 25.2288L121.198 27.8815L118.532 24.9316Z" fill="white"/>
<path d="M73.2723 17.4467C73.4825 15.5644 74.3787 14.6728 75.485 14.6728C76.5913 14.6728 77.4653 15.4653 77.5649 17.4467H73.2723ZM79.4014 18.019C79.4014 14.937 77.941 13.418 75.5846 13.418C72.7413 13.418 71.292 15.4873 71.292 18.3493C71.292 21.2112 72.5975 23.2916 75.7173 23.2916C76.8821 23.2928 78.0268 22.9891 79.0363 22.411V20.991C78.174 21.5894 77.1644 21.9433 76.1156 22.0147C74.1685 22.0147 73.2281 21.013 73.2281 18.7125H79.4014V18.019Z" fill="white"/>
<path d="M116.298 25.6141L112.448 29.1584L105.931 21.9486L107.746 20.3636L103.188 15.2782L105.013 13.6931L100.377 8.61874L107.602 2.20146L109.892 4.70013L113.764 1.25483L116.054 3.62141L117.581 2.20146C117.238 2.00333 116.895 1.82721 116.552 1.6621C114.308 0.576571 111.847 0.00847799 109.352 9.41661e-05C106.857 -0.00828966 104.392 0.543252 102.14 1.61368C99.8889 2.68411 97.9092 4.24586 96.3484 6.18274C94.7875 8.11962 93.6858 10.3818 93.1251 12.8008C92.5644 15.2199 92.5592 17.7336 93.1099 20.155C93.6606 22.5763 94.7529 24.8429 96.3058 26.7862C97.8586 28.7294 99.8318 30.2993 102.079 31.3789C104.326 32.4586 106.788 33.0202 109.283 33.022C112.155 33.0133 114.975 32.2542 117.459 30.8205C118.229 30.3913 118.969 29.9095 119.672 29.3786L116.353 25.5811L116.298 25.6141Z" fill="white"/>
<path d="M29.5169 22.0147C28.9201 22.034 28.3255 21.9329 27.7689 21.7175V15.5094C28.3965 15.108 29.125 14.8905 29.8709 14.882C31.1322 14.882 32.0062 15.6635 32.0062 18.0521C32.0062 21.1011 30.8998 21.9597 29.5501 21.9597L29.5169 22.0147ZM30.3467 13.473C29.4522 13.5032 28.5771 13.7407 27.791 14.1665V8.80591L25.8218 9.26822V22.3559C26.9703 22.9304 28.2319 23.2461 29.5169 23.2806C32.2606 23.2806 33.9422 21.5634 33.9422 18.0411C33.9422 15.0361 32.67 13.418 30.3245 13.418L30.3467 13.473Z" fill="white"/>
<path d="M66.3798 13.418C64.6773 13.4507 63.0136 13.929 61.5562 14.8049V23.0494H63.5254V15.5974C64.2281 15.1937 65.0164 14.9599 65.8266 14.915C66.8002 14.915 67.5414 15.1791 67.5414 16.6651V23.0494H69.4996V16.2358C69.4996 14.2986 68.6477 13.418 66.3798 13.418Z" fill="white"/>
<path d="M46.7204 9.7085L42.6713 20.2315H42.5828L38.3345 9.7085H36.0554V23.0604H37.7481V13.6051H37.9251L41.7862 23.0604H42.9921L46.8532 13.3739H47.0192V23.0604H49.0659V9.7085H46.7204Z" fill="white"/>
<path d="M55.4604 22.0147C54.1218 22.0147 53.104 20.914 53.104 18.3493C53.104 15.7845 54.2103 14.7389 55.4273 14.7389C56.6442 14.7389 57.7616 15.8396 57.7616 18.3493C57.7616 20.8589 56.8102 22.0147 55.4604 22.0147ZM55.4604 13.473C52.9712 13.473 51.1458 15.1131 51.1458 18.4043C51.1458 21.6955 52.8716 23.3466 55.4604 23.3466C58.0493 23.3466 59.7419 21.5744 59.7419 18.3493C59.7419 15.1241 57.9276 13.418 55.4273 13.418L55.4604 13.473Z" fill="white"/>
</g>
<defs>
<clipPath id="clip0_115_861">
<rect width="126" height="33" fill="white"/>
</clipPath>
</defs>
</svg>
