<svg width="21" height="21" viewBox="0 0 21 21" fill="none" xmlns="http://www.w3.org/2000/svg">
    <path d="M13.9917 2.44333H7.00832C3.97499 2.44333 2.16666 4.25166 2.16666 7.285V14.26C2.16666 17.3017 3.97499 19.11 7.00832 19.11H13.9833C17.0167 19.11 18.825 17.3017 18.825 14.2683V7.285C18.8333 4.25166 17.025 2.44333 13.9917 2.44333ZM14.875 11.0517C14.875 11.3933 14.5917 11.6767 14.25 11.6767C13.9083 11.6767 13.625 11.3933 13.625 11.0517V8.535L7.19166 14.9683C7.06666 15.0933 6.90832 15.1517 6.74999 15.1517C6.59166 15.1517 6.43332 15.0933 6.30832 14.9683C6.06666 14.7267 6.06666 14.3267 6.30832 14.085L12.7417 7.65166H10.225C9.88332 7.65166 9.59999 7.36833 9.59999 7.02666C9.59999 6.685 9.88332 6.40166 10.225 6.40166H14.25C14.5917 6.40166 14.875 6.685 14.875 7.02666V11.0517Z" fill="white"/>
</svg>
