<svg width="15" height="11" viewBox="0 0 15 11" fill="none" xmlns="http://www.w3.org/2000/svg">
<path d="M4.50002 8.47519L1.60835 5.58352C1.45254 5.4277 1.24121 5.34017 1.02085 5.34017C0.800498 5.34017 0.589168 5.4277 0.433353 5.58352C0.277538 5.73933 0.190002 5.95066 0.190002 6.17102C0.190002 6.28013 0.211493 6.38817 0.253247 6.48897C0.295001 6.58978 0.356201 6.68137 0.433353 6.75852L3.91669 10.2419C4.24169 10.5669 4.76669 10.5669 5.09169 10.2419L13.9084 1.42519C14.0642 1.26937 14.1517 1.05804 14.1517 0.837687C14.1517 0.617331 14.0642 0.406001 13.9084 0.250187C13.7525 0.0943719 13.5412 0.00683594 13.3209 0.00683594C13.1005 0.00683594 12.8892 0.0943719 12.7334 0.250187L4.50002 8.47519Z" fill="black"/>
</svg>
