<svg width="18" height="18" viewBox="0 0 16 16" fill="none" xmlns="http://www.w3.org/2000/svg">
<path d="M8 4V7.42857" stroke="#EE1313" stroke-linecap="round" stroke-linejoin="round"/>
<path d="M8.00002 11.4286C8.31561 11.4286 8.57145 11.1727 8.57145 10.8571C8.57145 10.5415 8.31561 10.2857 8.00002 10.2857C7.68443 10.2857 7.42859 10.5415 7.42859 10.8571C7.42859 11.1727 7.68443 11.4286 8.00002 11.4286Z" stroke="#EE1313" stroke-linecap="round" stroke-linejoin="round"/>
<path d="M7.13473 0.928932L0.92835 7.13531C0.450795 7.61286 0.450795 8.38714 0.92835 8.86469L7.13473 15.0711C7.61228 15.5486 8.38655 15.5486 8.86411 15.0711L15.0705 8.86469C15.548 8.38714 15.548 7.61286 15.0705 7.13531L8.86411 0.928932C8.38655 0.451377 7.61228 0.451377 7.13473 0.928932Z" stroke="#EE1313" stroke-linecap="round" stroke-linejoin="round"/>
</svg>
