<svg width="20" height="20" viewBox="0 0 20 20" fill="none" xmlns="http://www.w3.org/2000/svg">
<path d="M10 1.875C10.1658 1.875 10.3247 1.94085 10.4419 2.05806C10.5592 2.17527 10.625 2.33424 10.625 2.5V4.16667C10.625 4.33243 10.5592 4.4914 10.4419 4.60861C10.3247 4.72582 10.1658 4.79167 10 4.79167C9.83424 4.79167 9.67527 4.72582 9.55806 4.60861C9.44085 4.4914 9.375 4.33243 9.375 4.16667V2.5C9.375 2.33424 9.44085 2.17527 9.55806 2.05806C9.67527 1.94085 9.83424 1.875 10 1.875ZM10 15.2117C10.1658 15.2117 10.3247 15.2775 10.4419 15.3947C10.5592 15.5119 10.625 15.6709 10.625 15.8367V17.5033C10.625 17.6691 10.5592 17.8281 10.4419 17.9453C10.3247 18.0625 10.1658 18.1283 10 18.1283C9.83424 18.1283 9.67527 18.0625 9.55806 17.9453C9.44085 17.8281 9.375 17.6691 9.375 17.5033V15.8367C9.375 15.6709 9.44085 15.5119 9.55806 15.3947C9.67527 15.2775 9.83424 15.2117 10 15.2117ZM1.875 10C1.875 9.83424 1.94085 9.67527 2.05806 9.55806C2.17527 9.44085 2.33424 9.375 2.5 9.375H4.16667C4.33243 9.375 4.4914 9.44085 4.60861 9.55806C4.72582 9.67527 4.79167 9.83424 4.79167 10C4.79167 10.1658 4.72582 10.3247 4.60861 10.4419C4.4914 10.5592 4.33243 10.625 4.16667 10.625H2.5C2.33424 10.625 2.17527 10.5592 2.05806 10.4419C1.94085 10.3247 1.875 10.1658 1.875 10ZM15.2083 10C15.2083 9.83424 15.2742 9.67527 15.3914 9.55806C15.5086 9.44085 15.6676 9.375 15.8333 9.375H17.5C17.6658 9.375 17.8247 9.44085 17.9419 9.55806C18.0592 9.67527 18.125 9.83424 18.125 10C18.125 10.1658 18.0592 10.3247 17.9419 10.4419C17.8247 10.5592 17.6658 10.625 17.5 10.625H15.8333C15.6676 10.625 15.5086 10.5592 15.3914 10.4419C15.2742 10.3247 15.2083 10.1658 15.2083 10ZM16.275 3.725C16.392 3.84219 16.4578 4.00104 16.4578 4.16667C16.4578 4.33229 16.392 4.49115 16.275 4.60833L14.6083 6.275C14.5511 6.33641 14.4821 6.38566 14.4054 6.41982C14.3288 6.45398 14.246 6.47235 14.1621 6.47383C14.0782 6.47531 13.9948 6.45987 13.917 6.42844C13.8392 6.397 13.7685 6.35021 13.7091 6.29087C13.6498 6.23152 13.603 6.16082 13.5716 6.083C13.5401 6.00517 13.5247 5.92182 13.5262 5.8379C13.5277 5.75398 13.546 5.67122 13.5802 5.59455C13.6143 5.51789 13.6636 5.44888 13.725 5.39167L15.3917 3.725C15.5089 3.60796 15.6677 3.54222 15.8333 3.54222C15.999 3.54222 16.1578 3.60796 16.275 3.725ZM3.725 3.725C3.84219 3.60796 4.00104 3.54222 4.16667 3.54222C4.33229 3.54222 4.49115 3.60796 4.60833 3.725L6.275 5.39167C6.3854 5.51015 6.4455 5.66685 6.44265 5.82877C6.43979 5.99069 6.3742 6.14517 6.25969 6.25969C6.14517 6.3742 5.99069 6.43979 5.82877 6.44265C5.66685 6.4455 5.51015 6.3854 5.39167 6.275L3.725 4.60833C3.60796 4.49115 3.54222 4.33229 3.54222 4.16667C3.54222 4.00104 3.60796 3.84219 3.725 3.725ZM6.275 13.725C6.39204 13.8422 6.45778 14.001 6.45778 14.1667C6.45778 14.3323 6.39204 14.4911 6.275 14.6083L4.60833 16.275C4.48985 16.3854 4.33315 16.4455 4.17123 16.4426C4.00931 16.4398 3.85483 16.3742 3.74031 16.2597C3.6258 16.1452 3.56021 15.9907 3.55735 15.8288C3.5545 15.6669 3.6146 15.5101 3.725 15.3917L5.39167 13.725C5.50885 13.608 5.66771 13.5422 5.83333 13.5422C5.99896 13.5422 6.15781 13.608 6.275 13.725ZM13.725 13.725C13.8422 13.608 14.001 13.5422 14.1667 13.5422C14.3323 13.5422 14.4911 13.608 14.6083 13.725L16.275 15.3917C16.3364 15.4489 16.3857 15.5179 16.4198 15.5946C16.454 15.6712 16.4723 15.754 16.4738 15.8379C16.4753 15.9218 16.4599 16.0052 16.4284 16.083C16.397 16.1608 16.3502 16.2315 16.2909 16.2909C16.2315 16.3502 16.1608 16.397 16.083 16.4284C16.0052 16.4599 15.9218 16.4753 15.8379 16.4738C15.754 16.4723 15.6712 16.454 15.5946 16.4198C15.5179 16.3857 15.4489 16.3364 15.3917 16.275L13.725 14.6083C13.608 14.4911 13.5422 14.3323 13.5422 14.1667C13.5422 14.001 13.608 13.8422 13.725 13.725ZM10 6.04167C8.95018 6.04167 7.94337 6.4587 7.20104 7.20104C6.4587 7.94337 6.04167 8.95018 6.04167 10C6.04167 11.0498 6.4587 12.0566 7.20104 12.799C7.94337 13.5413 8.95018 13.9583 10 13.9583C11.0498 13.9583 12.0566 13.5413 12.799 12.799C13.5413 12.0566 13.9583 11.0498 13.9583 10C13.9583 8.95018 13.5413 7.94337 12.799 7.20104C12.0566 6.4587 11.0498 6.04167 10 6.04167Z" fill="black"/>
</svg>
