<svg width="16" height="13" viewBox="0 0 16 13" fill="none" xmlns="http://www.w3.org/2000/svg">
<path d="M7.99935 10C4.66602 10 1.79935 7.93333 0.666016 5C1.79935 2.06667 4.66602 0 7.99935 0C11.3327 0 14.1993 2.06667 15.3327 5C15.266 5.26667 15.1327 5.46667 14.9993 5.73333C14.666 4.93333 13.9993 4.26667 13.1327 3.93333C11.9327 2.33333 10.066 1.33333 7.99935 1.33333C5.46602 1.33333 3.19935 2.73333 2.13268 5C3.26602 7.26667 5.53268 8.66667 7.99935 8.66667H8.06602C7.99935 8.8 7.99935 9 7.99935 9.13333V10ZM7.99935 3C6.86602 3 5.99935 3.86667 5.99935 5C5.99935 6.13333 6.86602 7 7.99935 7C8.26602 7 8.53268 6.93333 8.79935 6.8V6.66667C8.79935 5.8 9.26602 5 9.93268 4.4C9.66602 3.6 8.93268 3 7.99935 3ZM13.866 8.33333H10.9993V6.66667C10.9993 6.13333 11.466 5.8 11.9993 5.8C12.5327 5.8 12.9993 6.13333 12.9993 6.66667V7H13.866V6.66667C13.866 5.73333 12.9327 5 11.9993 5C11.066 5 10.1327 5.73333 10.1327 6.66667V8.33333C9.73268 8.33333 9.33268 8.73333 9.33268 9.13333V11.4667C9.33268 11.9333 9.73268 12.3333 10.1327 12.3333H13.7993C14.266 12.3333 14.666 11.9333 14.666 11.5333V9.2C14.666 8.73333 14.266 8.33333 13.866 8.33333Z" fill="white"/>
</svg>
