<svg width="192" height="58" viewBox="0 0 192 58" fill="none" xmlns="http://www.w3.org/2000/svg">
    <path d="M14.88 6.28294H30.72C32.16 6.28294 36.48 5.79961 38.4 12.5663C39.84 16.9163 41.76 23.6829 44.64 33.8329H45.6C48.48 23.1996 50.88 15.9496 51.84 12.5663C53.76 5.79961 58.56 6.28294 60.48 6.28294H75.36V52.6829H60V25.1329H59.04L50.88 52.6829H39.36L31.2 25.1329H29.76V52.6829H14.88M81.6 6.28294H96.96V33.8329H98.4L108.48 11.1163C110.4 6.76628 114.72 6.28294 114.72 6.28294H129.12V52.6829H113.76V25.1329H112.8L102.72 47.8496C100.8 52.1996 96 52.6829 96 52.6829H81.6M149.76 38.6663V52.6829H135.36V28.5163H182.4C180.48 34.3163 173.76 38.6663 166.08 38.6663" fill="#0F754E"/>
    <path d="M183.36 25.6165C185.28 16.9165 179.52 6.2832 167.04 6.2832H134.4C135.36 16.4332 144 25.6165 153.12 25.6165" fill="url(#paint0_linear_2018_2588)"/>
    <defs>
        <linearGradient id="paint0_linear_2018_2588" x1="177.6" y1="-0.000130184" x2="139.2" y2="-0.000130184" gradientUnits="userSpaceOnUse">
            <stop stop-color="#1F5CD7"/>
            <stop offset="1" stop-color="#02AEFF"/>
        </linearGradient>
    </defs>
</svg>
