<svg width="24" height="25" viewBox="0 0 24 25" fill="none" xmlns="http://www.w3.org/2000/svg">
<path d="M17 4.125H7C4 4.125 2 5.625 2 9.125V16.125C2 19.625 4 21.125 7 21.125H17C20 21.125 22 19.625 22 16.125V9.125C22 5.625 20 4.125 17 4.125ZM17.47 10.215L14.34 12.715C13.68 13.245 12.84 13.505 12 13.505C11.16 13.505 10.31 13.245 9.66 12.715L6.53 10.215C6.21 9.955 6.16 9.475 6.41 9.155C6.67 8.835 7.14 8.775 7.46 9.035L10.59 11.535C11.35 12.145 12.64 12.145 13.4 11.535L16.53 9.035C16.85 8.775 17.33 8.825 17.58 9.155C17.84 9.475 17.79 9.955 17.47 10.215Z" fill="white"/>
</svg>
