<svg width="20" height="20" viewBox="0 0 20 20" fill="none" xmlns="http://www.w3.org/2000/svg">
<path d="M19.2857 15V17.8571C19.2857 18.236 19.1352 18.5994 18.8673 18.8673C18.5994 19.1352 18.236 19.2857 17.8571 19.2857H15" stroke="#27BE13" stroke-linecap="round" stroke-linejoin="round"/>
<path d="M15 0.713867H17.8571C18.236 0.713867 18.5994 0.864377 18.8673 1.13229C19.1352 1.4002 19.2857 1.76356 19.2857 2.14244V4.99958" stroke="#27BE13" stroke-linecap="round" stroke-linejoin="round"/>
<path d="M0.714355 4.99958V2.14244C0.714355 1.76356 0.864865 1.4002 1.13277 1.13229C1.40068 0.864377 1.76405 0.713867 2.14293 0.713867H5.00007" stroke="#27BE13" stroke-linecap="round" stroke-linejoin="round"/>
<path d="M5.00007 19.2857H2.14293C1.76405 19.2857 1.40068 19.1352 1.13277 18.8673C0.864865 18.5994 0.714355 18.236 0.714355 17.8571V15" stroke="#27BE13" stroke-linecap="round" stroke-linejoin="round"/>
<path d="M10.0002 9.28557C11.5782 9.28557 12.8574 8.00639 12.8574 6.42843C12.8574 4.85048 11.5782 3.57129 10.0002 3.57129C8.42225 3.57129 7.14307 4.85048 7.14307 6.42843C7.14307 8.00639 8.42225 9.28557 10.0002 9.28557Z" stroke="#27BE13" stroke-linecap="round" stroke-linejoin="round"/>
<path d="M14.5144 14.9997C14.1082 14.1466 13.4685 13.4261 12.6695 12.9216C11.8706 12.4172 10.945 12.1494 10.0001 12.1494C9.05523 12.1494 8.12968 12.4172 7.33072 12.9216C6.53175 13.4261 5.89209 14.1466 5.48584 14.9997" stroke="#27BE13" stroke-linecap="round" stroke-linejoin="round"/>
</svg>
