<svg width="18" height="18" viewBox="0 0 18 18" fill="none" xmlns="http://www.w3.org/2000/svg">
<path d="M9 0.875C9.16576 0.875 9.32473 0.940848 9.44194 1.05806C9.55915 1.17527 9.625 1.33424 9.625 1.5V3.16667C9.625 3.33243 9.55915 3.4914 9.44194 3.60861C9.32473 3.72582 9.16576 3.79167 9 3.79167C8.83424 3.79167 8.67527 3.72582 8.55806 3.60861C8.44085 3.4914 8.375 3.33243 8.375 3.16667V1.5C8.375 1.33424 8.44085 1.17527 8.55806 1.05806C8.67527 0.940848 8.83424 0.875 9 0.875ZM9 14.2117C9.16576 14.2117 9.32473 14.2775 9.44194 14.3947C9.55915 14.5119 9.625 14.6709 9.625 14.8367V16.5033C9.625 16.6691 9.55915 16.8281 9.44194 16.9453C9.32473 17.0625 9.16576 17.1283 9 17.1283C8.83424 17.1283 8.67527 17.0625 8.55806 16.9453C8.44085 16.8281 8.375 16.6691 8.375 16.5033V14.8367C8.375 14.6709 8.44085 14.5119 8.55806 14.3947C8.67527 14.2775 8.83424 14.2117 9 14.2117ZM0.875 9C0.875 8.83424 0.940848 8.67527 1.05806 8.55806C1.17527 8.44085 1.33424 8.375 1.5 8.375H3.16667C3.33243 8.375 3.4914 8.44085 3.60861 8.55806C3.72582 8.67527 3.79167 8.83424 3.79167 9C3.79167 9.16576 3.72582 9.32473 3.60861 9.44194C3.4914 9.55915 3.33243 9.625 3.16667 9.625H1.5C1.33424 9.625 1.17527 9.55915 1.05806 9.44194C0.940848 9.32473 0.875 9.16576 0.875 9ZM14.2083 9C14.2083 8.83424 14.2742 8.67527 14.3914 8.55806C14.5086 8.44085 14.6676 8.375 14.8333 8.375H16.5C16.6658 8.375 16.8247 8.44085 16.9419 8.55806C17.0592 8.67527 17.125 8.83424 17.125 9C17.125 9.16576 17.0592 9.32473 16.9419 9.44194C16.8247 9.55915 16.6658 9.625 16.5 9.625H14.8333C14.6676 9.625 14.5086 9.55915 14.3914 9.44194C14.2742 9.32473 14.2083 9.16576 14.2083 9ZM15.275 2.725C15.392 2.84219 15.4578 3.00104 15.4578 3.16667C15.4578 3.33229 15.392 3.49115 15.275 3.60833L13.6083 5.275C13.5511 5.33641 13.4821 5.38566 13.4054 5.41982C13.3288 5.45398 13.246 5.47235 13.1621 5.47383C13.0782 5.47531 12.9948 5.45987 12.917 5.42844C12.8392 5.397 12.7685 5.35021 12.7091 5.29087C12.6498 5.23152 12.603 5.16082 12.5716 5.083C12.5401 5.00517 12.5247 4.92182 12.5262 4.8379C12.5277 4.75398 12.546 4.67122 12.5802 4.59455C12.6143 4.51789 12.6636 4.44888 12.725 4.39167L14.3917 2.725C14.5089 2.60796 14.6677 2.54222 14.8333 2.54222C14.999 2.54222 15.1578 2.60796 15.275 2.725ZM2.725 2.725C2.84219 2.60796 3.00104 2.54222 3.16667 2.54222C3.33229 2.54222 3.49115 2.60796 3.60833 2.725L5.275 4.39167C5.3854 4.51015 5.4455 4.66685 5.44265 4.82877C5.43979 4.99069 5.3742 5.14517 5.25969 5.25969C5.14517 5.3742 4.99069 5.43979 4.82877 5.44265C4.66685 5.4455 4.51015 5.3854 4.39167 5.275L2.725 3.60833C2.60796 3.49115 2.54222 3.33229 2.54222 3.16667C2.54222 3.00104 2.60796 2.84219 2.725 2.725ZM5.275 12.725C5.39204 12.8422 5.45778 13.001 5.45778 13.1667C5.45778 13.3323 5.39204 13.4911 5.275 13.6083L3.60833 15.275C3.48985 15.3854 3.33315 15.4455 3.17123 15.4426C3.00931 15.4398 2.85483 15.3742 2.74031 15.2597C2.6258 15.1452 2.56021 14.9907 2.55735 14.8288C2.5545 14.6669 2.6146 14.5101 2.725 14.3917L4.39167 12.725C4.50885 12.608 4.66771 12.5422 4.83333 12.5422C4.99896 12.5422 5.15781 12.608 5.275 12.725ZM12.725 12.725C12.8422 12.608 13.001 12.5422 13.1667 12.5422C13.3323 12.5422 13.4911 12.608 13.6083 12.725L15.275 14.3917C15.3364 14.4489 15.3857 14.5179 15.4198 14.5946C15.454 14.6712 15.4723 14.754 15.4738 14.8379C15.4753 14.9218 15.4599 15.0052 15.4284 15.083C15.397 15.1608 15.3502 15.2315 15.2909 15.2909C15.2315 15.3502 15.1608 15.397 15.083 15.4284C15.0052 15.4599 14.9218 15.4753 14.8379 15.4738C14.754 15.4723 14.6712 15.454 14.5946 15.4198C14.5179 15.3857 14.4489 15.3364 14.3917 15.275L12.725 13.6083C12.608 13.4911 12.5422 13.3323 12.5422 13.1667C12.5422 13.001 12.608 12.8422 12.725 12.725ZM9 5.04167C7.95018 5.04167 6.94337 5.4587 6.20104 6.20104C5.4587 6.94337 5.04167 7.95018 5.04167 9C5.04167 10.0498 5.4587 11.0566 6.20104 11.799C6.94337 12.5413 7.95018 12.9583 9 12.9583C10.0498 12.9583 11.0566 12.5413 11.799 11.799C12.5413 11.0566 12.9583 10.0498 12.9583 9C12.9583 7.95018 12.5413 6.94337 11.799 6.20104C11.0566 5.4587 10.0498 5.04167 9 5.04167Z" fill="white"/>
</svg>
