<svg width="18" height="18" viewBox="0 0 18 18" fill="none" xmlns="http://www.w3.org/2000/svg">
<path d="M16.9414 12.2751C16.8081 12.0501 16.4331 11.7001 15.4998 11.8667C14.9831 11.9584 14.4581 12.0001 13.9331 11.9751C11.9914 11.8917 10.2331 11.0001 9.00809 9.62506C7.92476 8.41672 7.25809 6.84172 7.24976 5.14172C7.24976 4.19172 7.43309 3.27506 7.80809 2.40839C8.17476 1.56672 7.91642 1.12506 7.73309 0.941723C7.54142 0.750056 7.09142 0.48339 6.20809 0.850056C2.79976 2.28339 0.691424 5.70006 0.941424 9.35839C1.19142 12.8001 3.60809 15.7417 6.80809 16.8501C7.57476 17.1167 8.38309 17.2751 9.21642 17.3084C9.34976 17.3167 9.48309 17.3251 9.61642 17.3251C12.4081 17.3251 15.0248 16.0084 16.6748 13.7667C17.2331 12.9917 17.0831 12.5001 16.9414 12.2751Z" fill="white"/>
</svg>
