<svg width="20" height="20" viewBox="0 0 20 20" fill="none" xmlns="http://www.w3.org/2000/svg">
  <circle cx="10" cy="10" r="10" fill="#F7931A"/>
  <path d="M13.8 8.5c.2-1.3-.8-2-2.1-2.5l.4-1.7-1-.3-.4 1.7c-.3-.1-.5-.1-.8-.2l.4-1.7-1-.2-.4 1.7c-.2-.1-.4-.1-.6-.2l-1.4-.3-.3 1.1s.8.2.8.2c.4.1.5.4.5.6l-.5 2.1c0 0 .1 0 .1 0h-.1l-.7 2.9c-.1.2-.2.4-.6.3 0 0-.8-.2-.8-.2l-.5 1.2 1.3.3c.2.1.5.1.7.2l-.4 1.8 1 .2.4-1.7c.3.1.5.1.8.2l-.4 1.7 1 .2.4-1.8c1.7.3 3 .2 3.5-1.4.4-1.3 0-2-1-2.5.7-.2 1.3-.7 1.4-1.8zm-2.5 3.5c-.3 1.3-2.5.6-3.2.4l.6-2.3c.7.2 2.9.5 2.6 1.9zm.3-3.5c-.3 1.2-2.1.6-2.7.4l.5-2.1c.6.2 2.5.5 2.2 1.7z" fill="white"/>
</svg>
