<svg width="24" height="24" viewBox="0 0 24 24" fill="none" xmlns="http://www.w3.org/2000/svg">
  <circle cx="12" cy="12" r="11" fill="#26A17B"/>
  <path d="M13.5 10.5V9H17V7H7V9H10.5V10.5C7.5 10.7 5.5 11.5 5.5 12.5C5.5 13.5 7.5 14.3 10.5 14.5V18H13.5V14.5C16.5 14.3 18.5 13.5 18.5 12.5C18.5 11.5 16.5 10.7 13.5 10.5ZM13.5 13.8V13.8C13.3 13.8 12.7 13.9 12 13.9C11.3 13.9 10.7 13.8 10.5 13.8C8.3 13.6 6.7 13.1 6.7 12.5C6.7 11.9 8.3 11.4 10.5 11.2V13.2C10.7 13.2 11.3 13.3 12 13.3C12.7 13.3 13.3 13.2 13.5 13.2V11.2C15.7 11.4 17.3 11.9 17.3 12.5C17.3 13.1 15.7 13.6 13.5 13.8Z" fill="white"/>
</svg>
