<?xml version="1.0" encoding="UTF-8"?>
<svg id="_Слой_2" data-name="Слой 2" xmlns="http://www.w3.org/2000/svg" viewBox="0 0 615.02 565.16">
  <defs>
    <style>
      .cls-1 {
        fill: #869afa;
      }
    </style>
  </defs>
  <g id="_Слой_1-2" data-name="Слой 1">
    <circle class="cls-1" cx="575.87" cy="138.21" r="38.88"/>
    <circle class="cls-1" cx="576.14" cy="421.9" r="38.88"/>
    <path class="cls-1" d="M307.87,565.16c-63.72-43.94-127.06-87.62-190.68-131.49,0-6.22,.05-12.18-.02-18.13-.04-3.03,1.37-5.29,3.69-6.89,14.51-9.99,29.07-19.91,44.04-30.14,5.92,3.92,11.54,7.57,17.1,11.34,5.6,3.8,11.17,7.65,16.7,11.57,5.97,4.23,11.77,8.7,17.81,12.82,20.39,13.91,40.91,27.65,61.28,41.6,7.36,5.03,14.57,10.3,21.63,15.74,4.67,3.6,9.26,4.17,14.33,1.21,1.41-.82,3.02-1.36,4.28-2.35,17.99-14.04,37.26-26.27,55.93-39.34,17.35-12.15,34.85-24.09,52.42-35.93,7.63-5.15,15.59-9.81,24.12-15.15,2.4,1.47,5.22,2.98,7.82,4.82,9.28,6.55,18.46,13.24,27.74,19.8,2.86,2.02,6.14,3.5,8.77,5.76,1.46,1.26,2.72,3.56,2.82,5.46,.34,6.49,.13,13.01,.13,19.5-63.24,43.22-126.11,86.19-189.91,129.8Z"/>
    <path class="cls-1" d="M307.8,0c-63.72,43.94-127.06,87.62-190.68,131.49,0,6.22,.05,12.18-.02,18.13-.04,3.03,1.37,5.29,3.69,6.89,14.51,9.99,29.07,19.91,44.04,30.14,5.92-3.92,11.54-7.57,17.1-11.34,5.6-3.8,11.17-7.65,16.7-11.57,5.97-4.23,11.77-8.7,17.81-12.82,20.39-13.91,40.91-27.65,61.28-41.6,7.36-5.03,14.57-10.3,21.63-15.74,4.67-3.6,9.26-4.17,14.33-1.21,1.41,.82,3.02,1.36,4.28,2.35,17.99,14.04,37.26,26.27,55.93,39.34,17.35,12.15,34.85,24.09,52.42,35.93,7.63,5.15,15.59,9.81,24.12,15.15,2.4-1.47,5.22-2.98,7.82-4.82,9.28-6.55,18.46-13.24,27.74-19.8,2.86-2.02,6.14-3.5,8.77-5.76,1.46-1.26,2.72-3.56,2.82-5.46,.34-6.49,.13-13.01,.13-19.5C434.48,86.58,371.61,43.61,307.8,0Z"/>
    <path class="cls-1" d="M307.42,365.25c-17.23-11.71-33.14-22.51-49.03-33.33-7.17-4.89-14.23-9.95-21.49-14.72-2.81-1.85-4-4.01-3.98-7.39,.12-17.97,.11-35.94,.03-53.91-.01-3,.91-4.94,3.52-6.71,16.86-11.43,33.59-23.05,50.36-34.61,4.89-3.37,9.81-6.7,14.63-10.16,5.13-3.68,6.14-3.9,11.53-.22,10.99,7.5,21.86,15.17,32.78,22.76,10.7,7.43,21.31,15.02,32.21,22.15,2.97,1.95,3.95,4.02,3.94,7.28-.07,17.7-.1,35.4,.02,53.09,.03,4.01-1.61,6.44-4.86,8.65-19.06,12.99-37.97,26.22-56.99,39.27-4.21,2.89-8.68,5.38-12.69,7.85Z"/>
    <path class="cls-1" d="M511.58,379.21c-15.27-10.56-30.19-20.88-45.12-31.2-3.17-2.19-4.36-5.04-4.34-9.01,.17-37.3,.21-74.6,.08-111.9-.02-4.72,1.84-7.62,5.54-10.06,13.14-8.66,26.21-17.43,39.31-26.16,2.46-1.64,4.94-3.26,8.1-5.35,2.44,1.55,5.26,3.09,7.81,5,6.74,5.04,13.3,10.31,20.06,15.32,2.43,1.8,3.68,3.87,3.45,6.88-.1,1.35-.02,2.72-.02,4.08,0,41.38,.03,82.77-.05,124.15,0,3.2-.6,6.42-1.17,9.58-.86,4.85-3.96,7.97-7.99,10.67-8.54,5.71-16.84,11.78-25.64,17.98Z"/>
    <path class="cls-1" d="M104.22,379.21c15.27-10.56,30.19-20.88,45.12-31.2,3.17-2.19,4.36-5.04,4.34-9.01-.17-37.3-.21-74.6-.08-111.9,.02-4.72-1.84-7.62-5.54-10.06-13.14-8.66-26.21-17.43-39.31-26.16-2.46-1.64-4.94-3.26-8.1-5.35-2.44,1.55-5.26,3.09-7.81,5-6.74,5.04-13.3,10.31-20.06,15.32-2.43,1.8-3.68,3.87-3.45,6.88,.1,1.35,.02,2.72,.02,4.08,0,41.38-.03,82.77,.05,124.15,0,3.2,.6,6.42,1.17,9.58,.86,4.85,3.96,7.97,7.99,10.67,8.54,5.71,16.84,11.78,25.64,17.98Z"/>
    <circle class="cls-1" cx="38.88" cy="138.21" r="38.88"/>
    <circle class="cls-1" cx="38.88" cy="422.13" r="38.88"/>
  </g>
</svg>