<svg width="20" height="20" viewBox="0 0 20 20" fill="none" xmlns="http://www.w3.org/2000/svg">
    <path d="M13.4915 1.66663H6.50817C3.47484 1.66663 1.6665 3.47496 1.6665 6.50829V13.4833C1.6665 16.525 3.47484 18.3333 6.50817 18.3333H13.4832C16.5165 18.3333 18.3248 16.525 18.3248 13.4916V6.50829C18.3332 3.47496 16.5248 1.66663 13.4915 1.66663ZM14.3748 10.275C14.3748 10.6166 14.0915 10.9 13.7498 10.9C13.4082 10.9 13.1248 10.6166 13.1248 10.275V7.75829L6.6915 14.1916C6.5665 14.3166 6.40817 14.375 6.24984 14.375C6.0915 14.375 5.93317 14.3166 5.80817 14.1916C5.5665 13.95 5.5665 13.55 5.80817 13.3083L12.2415 6.87496H9.72484C9.38317 6.87496 9.09984 6.59163 9.09984 6.24996C9.09984 5.90829 9.38317 5.62496 9.72484 5.62496H13.7498C14.0915 5.62496 14.3748 5.90829 14.3748 6.24996V10.275Z" fill="black"/>
</svg>
