<svg width="20" height="20" viewBox="0 0 20 20" fill="none" xmlns="http://www.w3.org/2000/svg">
<path d="M10.0146 2.3335C14.2936 2.3335 17.7625 5.7735 17.7625 10.0168C17.7625 14.2602 14.2936 17.7002 10.0146 17.7002C5.73563 17.7002 2.26672 14.2602 2.26672 10.0168C2.26672 5.7735 5.73563 2.3335 10.0146 2.3335Z" fill="#0052FF"/>
<path d="M10.0179 12.7166C8.51201 12.7166 7.29521 11.5066 7.29521 10.0166C7.29521 8.52661 8.51538 7.31661 10.0179 7.31661C11.3658 7.31661 12.4851 8.28995 12.7002 9.56662H15.4431C15.2112 6.79328 12.8717 4.61328 10.0145 4.61328C7.00613 4.61328 4.5658 7.03328 4.5658 10.0166C4.5658 12.9999 7.00613 15.4199 10.0145 15.4199C12.8717 15.4199 15.2112 13.2399 15.4431 10.4666H12.6969C12.4818 11.7433 11.3658 12.7166 10.0179 12.7166Z" fill="white"/>
</svg>
