<svg width="20" height="20" viewBox="0 0 20 20" fill="none" xmlns="http://www.w3.org/2000/svg">
    <g clip-path="url(#clip0_2002_2444)">
        <path d="M9.99999 0L1.33679 5V15L9.99999 20L18.6632 15V5L9.99999 0ZM9.99999 0L1.33679 5V15L9.99999 20L18.6632 15V5L9.99999 0Z" fill="white"/>
        <path d="M13.42 16.0936H12.1872L10.712 14.7392V14.0448L12.24 12.5864V10.2776L14.2368 8.9752L16.5112 10.6936L13.42 16.0936ZM8.31599 12.448L8.54159 10.2776L7.79519 8.3328H12.2048L11.4752 10.2776L11.684 12.448H9.98239H8.31599ZM9.32319 14.7392L7.84719 16.1104H6.59679L3.48879 10.6936L5.78079 8.992L7.79439 10.2768V12.5856L9.32239 14.044L9.32319 14.7392ZM6.57999 4.3232H13.4032L14.2192 7.7952H5.78159L6.57999 4.3232ZM9.99999 0L1.33679 5V15L9.99999 20L18.6632 15V5L9.99999 0Z" fill="#03316C"/>
    </g>
    <defs>
        <clipPath id="clip0_2002_2444">
            <rect width="20" height="20" fill="white"/>
        </clipPath>
    </defs>
</svg>
