<svg width="24" height="25" viewBox="0 0 24 25" fill="none" xmlns="http://www.w3.org/2000/svg">
<path d="M20.83 8.38502L14.28 3.14502C13 2.12502 11 2.11502 9.72996 3.13502L3.17996 8.38502C2.23996 9.13502 1.66996 10.635 1.86996 11.815L3.12996 19.355C3.41996 21.045 4.98996 22.375 6.69996 22.375H17.3C18.99 22.375 20.59 21.015 20.88 19.345L22.14 11.805C22.32 10.635 21.75 9.13502 20.83 8.38502ZM12.75 18.375C12.75 18.785 12.41 19.125 12 19.125C11.59 19.125 11.25 18.785 11.25 18.375V15.375C11.25 14.965 11.59 14.625 12 14.625C12.41 14.625 12.75 14.965 12.75 15.375V18.375Z" fill="white"/>
</svg>
