<svg width="13" height="20" viewBox="0 0 13 20" fill="none" xmlns="http://www.w3.org/2000/svg">
    <g clip-path="url(#clip0_2002_2396)">
        <mask id="mask0_2002_2396" style="mask-type:luminance" maskUnits="userSpaceOnUse" x="0" y="0" width="52" height="20">
            <path d="M51.7241 0H0V20H51.7241V0Z" fill="white"/>
        </mask>
        <g mask="url(#mask0_2002_2396)">
            <path d="M8.57949 6.17109C8.6388 3.23414 6.97575 0.674932 6.10954 0.0598581C6.1056 0.0558975 6.02846 0.0143703 6.03437 0.12908C6.03437 0.13105 6.0324 0.13105 6.0324 0.133031C5.94343 5.68065 3.09181 7.17582 1.54343 9.20892C-1.89745 13.73 0.973879 18.888 4.69358 19.865C4.75693 19.8808 4.92895 19.9323 5.25525 19.9995C5.4253 20.0351 5.47476 19.8907 5.35013 19.6751C4.90521 18.9018 4.11417 17.5965 3.95801 15.9194C3.60205 12.0252 8.51023 9.58863 8.57949 6.17109Z" fill="black"/>
            <path d="M10.4542 8.05208C10.4246 8.03031 10.3831 8.03228 10.3791 8.06981C10.3 8.77592 9.57027 10.2395 8.60918 11.608C5.37391 16.2221 7.00347 18.3145 8.26908 19.7663C8.50239 20.0352 8.61904 19.9759 8.7417 19.7841C8.85638 19.6021 9.03037 19.3707 9.77795 19.0167C9.8946 18.9613 12.7185 17.4622 13.025 14.0486C13.3197 10.7458 11.2017 8.6572 10.4542 8.05208Z" fill="#008CD6"/>
        </g>
    </g>
    <defs>
        <clipPath id="clip0_2002_2396">
            <rect width="13.0049" height="20" fill="white"/>
        </clipPath>
    </defs>
</svg>
