<svg width="20" height="20" viewBox="0 0 20 20" fill="none" xmlns="http://www.w3.org/2000/svg">
<path d="M10.0032 3.3335C5.40151 3.3335 1.67151 7.29183 1.67151 12.1727V15.961C1.67151 16.6577 2.20401 17.2227 2.86068 17.2227C3.51818 17.2227 4.05401 16.6577 4.05401 15.961V12.1727C4.05401 11.4743 4.58484 10.9093 5.24318 10.9093C5.90068 10.9093 6.43318 11.4743 6.43318 12.1727V15.961C6.43318 16.6577 6.96484 17.2227 7.62234 17.2227C8.28067 17.2227 8.81401 16.6577 8.81401 15.961V12.1727C8.81401 11.4743 9.34568 10.9093 10.0032 10.9093C10.6615 10.9093 11.1965 11.4743 11.1965 12.1727V15.961C11.1965 16.6577 11.7282 17.2227 12.3857 17.2227C13.0423 17.2227 13.5748 16.6577 13.5748 15.961V12.1727C13.5748 11.4743 14.1073 10.9093 14.7682 10.9093C15.4248 10.9093 15.9573 11.4743 15.9573 12.1727V15.961C15.9573 16.6577 16.4898 17.2227 17.149 17.2227C17.8057 17.2227 18.3382 16.6577 18.3382 15.961V12.1727C18.3382 7.29183 14.6065 3.3335 10.0032 3.3335Z" fill="#7133F5"/>
</svg>
