<svg width="33" height="20" viewBox="0 0 33 20" fill="none" xmlns="http://www.w3.org/2000/svg">
    <path d="M32.468 14.1235L25.3322 1.90987C23.7678 -0.635768 19.9529 -0.66285 18.4434 2.01818L10.9509 14.7193C9.55114 17.0483 11.2802 19.973 14.0797 19.973H29.0921C31.9191 19.973 34.0323 16.967 32.468 14.1235Z" fill="#3156AA"/>
    <path d="M22.1759 15.0715L21.7368 14.3133C21.3251 13.6091 20.4194 12.0926 20.4194 12.0926L14.3815 1.74759C12.8171 -0.554317 9.11202 -0.743886 7.54764 2.1538L0.521665 14.1508C-0.932932 16.6693 0.796117 19.9461 3.95232 19.9733H18.8825H25.2498H29.0373C25.1675 20.0003 23.9325 18.0233 22.1759 15.0715Z" fill="#1972E2"/>
    <path d="M22.1759 15.071L21.7368 14.3128C21.3251 13.6086 20.4194 12.0921 20.4194 12.0921L16.5222 5.32178L10.9234 14.7461C9.52374 17.075 11.2527 19.9998 14.0522 19.9998H18.855H25.2224H29.0373C25.1401 19.9727 23.9324 18.0229 22.1759 15.071Z" fill="url(#paint0_linear_2002_2434)"/>
    <defs>
        <linearGradient id="paint0_linear_2002_2434" x1="8.9308" y1="10.4639" x2="26.2194" y2="16.9387" gradientUnits="userSpaceOnUse">
            <stop stop-color="#264CA2" stop-opacity="0"/>
            <stop offset="1" stop-color="#234588"/>
        </linearGradient>
    </defs>
</svg>
