<svg width="20" height="20" viewBox="0 0 20 20" fill="none" xmlns="http://www.w3.org/2000/svg">
<path d="M19.2857 15V17.8571C19.2857 18.236 19.1352 18.5994 18.8673 18.8673C18.5994 19.1352 18.236 19.2857 17.8571 19.2857H15" stroke="#FF9F1A" stroke-linecap="round" stroke-linejoin="round"/>
<path d="M15 0.713867H17.8571C18.236 0.713867 18.5994 0.864377 18.8673 1.13229C19.1352 1.4002 19.2857 1.76356 19.2857 2.14244V4.99958" stroke="#FF9F1A" stroke-linecap="round" stroke-linejoin="round"/>
<path d="M0.714294 4.99958V2.14244C0.714294 1.76356 0.864804 1.4002 1.13271 1.13229C1.40062 0.864377 1.76399 0.713867 2.14287 0.713867H5.00001" stroke="#FF9F1A" stroke-linecap="round" stroke-linejoin="round"/>
<path d="M5.00001 19.2857H2.14287C1.76399 19.2857 1.40062 19.1352 1.13271 18.8673C0.864804 18.5994 0.714294 18.236 0.714294 17.8571V15" stroke="#FF9F1A" stroke-linecap="round" stroke-linejoin="round"/>
<path d="M10 9.28557C11.578 9.28557 12.8571 8.00639 12.8571 6.42843C12.8571 4.85048 11.578 3.57129 10 3.57129C8.42204 3.57129 7.14285 4.85048 7.14285 6.42843C7.14285 8.00639 8.42204 9.28557 10 9.28557Z" stroke="#FF9F1A" stroke-linecap="round" stroke-linejoin="round"/>
<path d="M14.5143 14.9997C14.108 14.1466 13.4684 13.4261 12.6694 12.9216C11.8704 12.4172 10.9449 12.1494 10 12.1494C9.05511 12.1494 8.12956 12.4172 7.33059 12.9216C6.53163 13.4261 5.89197 14.1466 5.48572 14.9997" stroke="#FF9F1A" stroke-linecap="round" stroke-linejoin="round"/>
</svg>
