<svg width="20" height="20" viewBox="0 0 20 20" fill="none" xmlns="http://www.w3.org/2000/svg">
    <g clip-path="url(#clip0_2002_2378)">
        <path d="M13.8533 11.5998L16.1183 13.8631L9.99083 19.9906L3.86333 13.8639L6.1275 11.5998L9.99083 15.4831L13.8533 11.5998ZM17.7175 7.73643L20 9.99977L17.7375 12.2631L15.4733 9.99977L17.7175 7.73643ZM9.99083 7.73643L12.2542 9.97977L9.99 12.2439L7.72667 9.99977L9.99083 7.73643ZM2.26333 7.73643L4.50833 9.99977L2.265 12.2431L0 9.99977L2.26333 7.73643ZM9.99167 0.00976562L16.1167 6.11643L13.8525 8.37893L9.99167 4.51643L6.12833 8.39977L3.86417 6.13643L9.99167 0.00976562Z" fill="#FFCA3A"/>
    </g>
    <defs>
        <clipPath id="clip0_2002_2378">
            <rect width="20" height="20" fill="white"/>
        </clipPath>
    </defs>
</svg>
