<svg width="20" height="20" viewBox="0 0 20 20" fill="none" xmlns="http://www.w3.org/2000/svg">
    <g clip-path="url(#clip0_2002_2454)">
        <path d="M18.6934 2.97712C15.3361 2.96512 12.0547 4.42112 9.80939 6.90646C9.00139 7.74246 8.46272 8.76646 7.81472 9.71446C6.26272 11.8385 3.84006 13.0665 1.21472 13.0651V16.8851C4.57072 16.8985 7.85206 15.4371 10.0987 12.9518C10.9027 12.1158 11.4494 11.0931 12.0934 10.1438C13.6454 8.02246 16.0681 6.79446 18.6934 6.79579V2.97712Z" fill="url(#paint0_linear_2002_2454)"/>
        <path d="M18.6933 13.0654C16.0693 13.0654 13.6453 11.8388 12.0933 9.71742C11.452 8.76809 10.904 7.74676 10.1013 6.90942C7.85995 4.42409 4.57329 2.96542 1.21729 2.98009V6.80009C4.12395 6.78542 6.82395 8.34942 8.28529 10.8614C8.71462 11.6108 9.22662 12.3148 9.81195 12.9601C12.056 15.4441 15.34 16.9054 18.696 16.8934L18.6933 13.0668V13.0654Z" fill="#2A54FF"/>
    </g>
    <defs>
        <linearGradient id="paint0_linear_2002_2454" x1="2.35739" y1="15.5265" x2="17.6187" y2="4.28112" gradientUnits="userSpaceOnUse">
            <stop stop-color="#2A54FF"/>
            <stop offset="0.52" stop-color="#2143CB"/>
            <stop offset="1" stop-color="#2A54FF"/>
        </linearGradient>
        <clipPath id="clip0_2002_2454">
            <rect width="20" height="20" fill="white"/>
        </clipPath>
    </defs>
</svg>
