<svg width="20" height="20" viewBox="0 0 20 20" fill="none" xmlns="http://www.w3.org/2000/svg">
    <g clip-path="url(#clip0_2002_2424)">
        <path d="M0.762623 17.167C1.68378 18.1534 6.74916 22.8796 14.6992 17.3941C20.4492 12.8738 20.3049 3.07376 19.753 0.11259C19.5607 0.543658 12.8895 15.3087 0.762623 17.167ZM19.753 0.110649C19.6819 0.0815224 12.2857 -0.935953 4.97416 3.81939C0.433777 6.77084 -0.168146 11.0932 0.0395463 13.9806C10.6684 12.7728 19.5107 0.450454 19.753 0.110649Z" fill="#97C554"/>
        <path d="M19.753 0.110649C19.6819 0.0815224 12.2857 -0.935953 4.97416 3.81939C0.433777 6.77084 -0.168146 11.0932 0.0395463 13.9806C10.6684 12.7728 19.5107 0.450454 19.753 0.110649Z" fill="#709B30"/>
    </g>
    <defs>
        <clipPath id="clip0_2002_2424">
            <rect width="20" height="20" fill="white" transform="translate(0.00488281)"/>
        </clipPath>
    </defs>
</svg>
