<svg width="52" height="20" viewBox="0 0 52 20" fill="none" xmlns="http://www.w3.org/2000/svg">
    <g clip-path="url(#clip0_2002_2384)">
        <path d="M36.4757 14.622V1.4707H39.1193V14.622H36.4757Z" fill="#F7A600"/>
        <path d="M5.66713 18.5283H0V5.37695H5.43948C8.08304 5.37695 9.62305 6.81815 9.62305 9.07111C9.62305 10.53 8.63363 11.4729 7.94892 11.787C8.76657 12.1559 9.81247 12.987 9.81247 14.7424C9.81247 17.1983 8.08304 18.5283 5.66713 18.5283ZM5.23006 7.66757H2.64356V10.697H5.22947C6.35125 10.697 6.97891 10.0876 6.97891 9.1817C6.97891 8.27758 6.35184 7.66757 5.23006 7.66757ZM5.40065 13.0059H2.64415V16.2388H5.40183C6.60008 16.2388 7.1695 15.5 7.1695 14.6129C7.1695 13.7265 6.5989 13.0059 5.40183 13.0059H5.40065ZM17.8755 13.1353V18.5283H15.2508V13.1353L11.1807 5.37695H14.0525L16.582 10.6782L19.0732 5.37695H21.9444L17.8755 13.1353ZM29.4392 18.5283H23.772V5.37695H29.2109C31.8545 5.37695 33.3951 6.81815 33.3951 9.07111C33.3951 10.53 32.4057 11.4729 31.721 11.787C32.5386 12.1559 33.5845 12.987 33.5845 14.7424C33.5845 17.1983 31.8551 18.5283 29.4392 18.5283ZM29.0021 7.66757H26.4156V10.697H29.0021C30.1239 10.697 30.7515 10.0876 30.7515 9.1817C30.7515 8.27758 30.1239 7.66757 29.0021 7.66757ZM29.1727 13.0059H26.415V16.2388H29.1727C30.3715 16.2388 30.941 15.5 30.941 14.6129C30.941 13.7265 30.3715 13.0059 29.1727 13.0059ZM47.6394 7.66816V18.5295H44.9958V7.66757H41.4593V5.37695H51.1771V7.66757L47.6394 7.66816Z" fill="#15192A"/>
    </g>
    <defs>
        <clipPath id="clip0_2002_2384">
            <rect width="51.1771" height="20" fill="white"/>
        </clipPath>
    </defs>
</svg>
