<svg width="20" height="20" viewBox="0 0 20 20" fill="none" xmlns="http://www.w3.org/2000/svg">
    <g clip-path="url(#clip0_2002_2402)">
        <path d="M9.97451 15.484C8.50428 15.484 7.09428 14.9063 6.05468 13.8778C5.01507 12.8494 4.43103 11.4546 4.43103 10.0002C4.43103 8.54575 5.01507 7.15091 6.05468 6.12248C7.09428 5.09406 8.50428 4.51629 9.97451 4.51629V0.0302734C7.98121 0.0302734 6.03268 0.614996 4.37532 1.7105C2.71796 2.80601 1.42621 4.36309 0.663407 6.18485C-0.0993926 8.00661 -0.298976 10.0112 0.0898956 11.9452C0.478768 13.8792 1.43863 15.6556 2.8481 17.0499C4.25757 18.4443 6.05334 19.3938 8.00834 19.7785C9.96333 20.1632 11.9897 19.9657 13.8313 19.2111C15.6729 18.4565 17.2469 17.1787 18.3543 15.5391C19.4617 13.8996 20.0528 11.972 20.0528 10.0002H15.518C15.518 11.4546 14.9339 12.8494 13.8943 13.8778C12.8547 14.9063 11.4447 15.484 9.97451 15.484Z" fill="#2354E6"/>
        <path d="M15.518 4.51611H9.97449V9.99998H15.518V4.51611Z" fill="#17E6A1"/>
    </g>
    <defs>
        <clipPath id="clip0_2002_2402">
            <rect width="20" height="20" fill="white" transform="translate(0.00488281)"/>
        </clipPath>
    </defs>
</svg>
