<svg width="20" height="20" viewBox="0 0 20 20" fill="none" xmlns="http://www.w3.org/2000/svg">
    <g clip-path="url(#clip0_2002_2429)">
        <path d="M1.85754 1.68896C2.88297 1.68896 3.71594 2.45096 3.71594 3.38903V16.5999C3.71594 17.5379 2.88297 18.2999 1.85754 18.2999C0.832111 18.2999 -0.000854492 17.5379 -0.000854492 16.5999V3.38903C0.00230068 2.45096 0.832111 1.68896 1.85754 1.68896Z" fill="#0097E8"/>
        <path d="M13.8567 0.661525C14.5792 1.32827 14.5729 2.40488 13.8441 3.06297L3.57715 12.357C2.8483 13.018 1.67142 13.0122 0.952043 12.3455C0.229508 11.6787 0.235818 10.6021 0.964663 9.94403L11.2316 0.652866C11.9604 -0.0109946 13.1373 -0.00522186 13.8567 0.661525Z" fill="#0097E8"/>
        <path d="M13.8567 19.3156C14.5792 18.6489 14.5729 17.5723 13.8441 16.9142L3.57715 7.623C2.8483 6.96203 1.67142 6.9678 0.952043 7.63455C0.229508 8.3013 0.235818 9.37791 0.964663 10.036L11.2316 19.3272C11.9604 19.991 13.1373 19.9852 13.8567 19.3156Z" fill="#0097E8"/>
        <path d="M19.4571 12.1838C20.1797 12.8505 20.1765 13.9271 19.4508 14.5881L14.0492 19.5065C13.3203 20.1674 12.1435 20.1645 11.4209 19.5007C10.6984 18.8339 10.7015 17.7573 11.4272 17.0964L16.8289 12.178C17.5546 11.517 18.7315 11.5199 19.4571 12.1838Z" fill="#0097E8"/>
        <path d="M19.4571 7.81661C20.1797 7.14986 20.1765 6.07325 19.4508 5.41228L14.0492 0.493932C13.3203 -0.167042 12.1435 -0.164156 11.4209 0.499705C10.6984 1.16645 10.7015 2.24306 11.4272 2.90404L16.8289 7.82238C17.5577 8.48335 18.7346 8.48335 19.4571 7.81661Z" fill="#0097E8"/>
        <path d="M12.7492 11.7161C13.7842 11.7161 14.6233 10.9485 14.6233 10.0016C14.6233 9.05471 13.7842 8.28711 12.7492 8.28711C11.7141 8.28711 10.875 9.05471 10.875 10.0016C10.875 10.9485 11.7141 11.7161 12.7492 11.7161Z" fill="#0097E8"/>
    </g>
    <defs>
        <clipPath id="clip0_2002_2429">
            <rect width="20" height="20" fill="white"/>
        </clipPath>
    </defs>
</svg>
