<svg width="20" height="20" viewBox="0 0 20 20" fill="none" xmlns="http://www.w3.org/2000/svg">
    <g clip-path="url(#clip0_2002_2393)">
        <path d="M10 20C15.5228 20 20 15.5228 20 10C20 4.47715 15.5228 0 10 0C4.47715 0 0 4.47715 0 10C0 15.5228 4.47715 20 10 20Z" fill="#093687"/>
        <path d="M9.38967 13.5839L11.1735 8.16412L12.0327 8.44372L11.4188 6.41504H16.7283C17.6917 6.41504 18.193 7.2758 17.8467 8.33428L17.5104 9.3584C17.506 9.37158 17.5012 9.38436 17.496 9.39834L17.4816 9.43589C17.3889 9.6879 17.2607 9.92541 17.101 10.1413C16.5957 10.8283 15.8264 11.274 15.1414 11.278H15.0907H12.4756L11.7191 13.5827L9.38967 13.5839ZM12.8691 10.0814H14.2834C14.6373 10.0814 15.0288 9.76502 15.1558 9.37637L15.5033 8.3191C15.6311 7.93006 15.447 7.61411 15.0939 7.61411H13.6791L12.8691 10.0814ZM3.26689 13.5835C3.20645 13.5814 3.14618 13.576 3.08635 13.5671C2.98617 13.5551 2.88784 13.5308 2.79357 13.4948C2.60624 13.4241 2.44008 13.3287 2.31426 13.1685C2.2383 13.071 2.17805 12.9623 2.13572 12.8462C2.11385 12.7872 2.0961 12.7267 2.0826 12.6652C2.01429 12.3549 2.04265 12.0433 2.12813 11.7398C2.13532 11.7134 2.17047 11.5996 2.17047 11.5996L3.87442 6.41624H6.22303L4.49353 11.6811C4.39926 11.969 4.47236 12.2251 4.67886 12.3333C4.74526 12.3696 4.8201 12.3877 4.89575 12.3856H6.05687L8.01725 6.41624H10.6734L8.72703 8.44492L9.77792 8.16532L7.99329 13.5839L3.26689 13.5835Z" fill="white"/>
    </g>
    <defs>
        <clipPath id="clip0_2002_2393">
            <rect width="20" height="20" fill="white"/>
        </clipPath>
    </defs>
</svg>
